<?xml version="1.0" encoding="UTF-8" standalone="no"?>
<svg width="262px" height="306px" viewBox="0 0 262 306" version="1.1" xmlns="http://www.w3.org/2000/svg" xmlns:xlink="http://www.w3.org/1999/xlink">
    <!-- Generator: Sketch 3.6 (26304) - http://www.bohemiancoding.com/sketch -->
    <title>Group 27</title>
    <desc>Created with Sketch.</desc>
    <defs>
        <filter x="-50%" y="-50%" width="200%" height="200%" filterUnits="objectBoundingBox" id="filter-1">
            <feOffset dx="0" dy="0" in="SourceAlpha" result="shadowOffsetOuter1"></feOffset>
            <feGaussianBlur stdDeviation="6" in="shadowOffsetOuter1" result="shadowBlurOuter1"></feGaussianBlur>
            <feColorMatrix values="0 0 0 0 0.0823529412   0 0 0 0 0.317647059   0 0 0 0 0.376470588  0 0 0 0.14 0" in="shadowBlurOuter1" type="matrix" result="shadowMatrixOuter1"></feColorMatrix>
            <feMerge>
                <feMergeNode in="shadowMatrixOuter1"></feMergeNode>
                <feMergeNode in="SourceGraphic"></feMergeNode>
            </feMerge>
        </filter>
        <path id="path-2" d="M4.6031746,0 C2.56949206,0 0.919714286,1.71936 0.919714286,3.84 C0.919714286,5.9568 2.56949206,7.68 4.6031746,7.68 L112.31746,7.68 C114.351143,7.68 116,5.96064 116,3.84 C116,1.72416 114.351143,0 112.31746,0 L4.6031746,0 L4.6031746,0 Z"></path>
        <path id="path-4" d="M3.68438095,0.00096 C1.64793651,0.00096 0,1.71936 0,3.84 C0,5.95584 1.64885714,7.68 3.68438095,7.68 L83.6654603,7.68 C85.7019048,7.68 87.3498413,5.96064 87.3498413,3.84 C87.3498413,1.72416 85.7000635,0.00096 83.6654603,0.00096 L3.68438095,0.00096 L3.68438095,0.00096 Z"></path>
    </defs>
    <g id="Page-1" stroke="none" stroke-width="1" fill="none" fill-rule="evenodd">
        <g id="Desktop-HD-Copy" transform="translate(-380.000000, -2270.000000)">
            <g id="Group-27" transform="translate(380.000000, 2270.000000)">
                <ellipse id="Oval-20" fill="#FFFFFF" cx="130.970726" cy="131.672235" rx="55.4054376" ry="55.3602851"></ellipse>
                <rect id="Rectangle-10" fill="#EAF8FA" x="0" y="0" width="262" height="306" rx="4"></rect>
                <g id="Group-15">
                    <rect id="Rectangle-11" fill="#00C3AE" x="0" y="0" width="262" height="20.101626" rx="4"></rect>
                    <rect id="Rectangle-11" fill="#00C3AE" x="0" y="13.9837398" width="262" height="20.9756098"></rect>
                    <g id="Group-17" transform="translate(6.986667, 6.991870)">
                        <path d="M3.60405301,6.99186992 C5.59451653,6.99186992 7.20810602,5.42668652 7.20810602,3.49593496 C7.20810602,1.5651834 5.59451653,0 3.60405301,0 C1.6135895,0 0,1.5651834 0,3.49593496 C0,5.42668652 1.6135895,6.99186992 3.60405301,6.99186992 Z" id="Oval-13" fill="#EAF8FA"></path>
                        <path d="M14.2530853,6.99186992 C16.2435488,6.99186992 17.8571383,5.42668652 17.8571383,3.49593496 C17.8571383,1.5651834 16.2435488,0 14.2530853,0 C12.2626218,0 10.6490323,1.5651834 10.6490323,3.49593496 C10.6490323,5.42668652 12.2626218,6.99186992 14.2530853,6.99186992 Z" id="Oval-13" fill="#2492A0"></path>
                    </g>
                </g>
                <g id="+" filter="url(#filter-1)" transform="translate(189.373333, 232.325203)">
                    <ellipse id="Oval-5" fill="#34CEB9" cx="24.4533333" cy="24.4715447" rx="24.4533333" ry="24.4715447"></ellipse>
                    <path d="M18.3357113,26.2195122 C17.3734225,26.2195122 16.5933333,25.4436509 16.5933333,24.4715447 L16.5933333,24.4715447 C16.5933333,23.5061689 17.3728906,22.7235772 18.3357113,22.7235772 L30.5709554,22.7235772 C31.5332441,22.7235772 32.3133333,23.4994385 32.3133333,24.4715447 L32.3133333,24.4715447 C32.3133333,25.4369205 31.5337761,26.2195122 30.5709554,26.2195122 L18.3357113,26.2195122 L18.3357113,26.2195122 Z" id="Rectangle-62" fill="#FFFFFF"></path>
                    <path d="M26.2,30.5937228 C26.2,31.5567282 25.4247161,32.3373984 24.4533333,32.3373984 L24.4533333,32.3373984 C23.488676,32.3373984 22.7066667,31.5572606 22.7066667,30.5937228 L22.7066667,18.3493667 C22.7066667,17.3863612 23.4819506,16.6056911 24.4533333,16.6056911 L24.4533333,16.6056911 C25.4179907,16.6056911 26.2,17.3858289 26.2,18.3493667 L26.2,30.5937228 L26.2,30.5937228 Z" id="Rectangle-62" fill="#FFFFFF"></path>
                    <path id="Path-232" stroke="#979797" d=""></path>
                </g>
                <g id="Group-4" transform="translate(85.586667, 98.170732)" fill="#34BCCE">
                    <g id="Group-12">
                        <g id="Group">
                            <g id="Page-1" opacity="0.5">
                                <path d="M22.6009395,22.2310896 C14.549882,22.2310896 8.24367833,28.4903543 8.24367833,36.4818468 C8.24367833,44.4733394 14.549882,50.7326041 22.6009395,50.7326041 L55.3190082,50.7326041 C66.3844035,50.7326041 75.7315072,40.9452393 75.7315072,29.3601578 C75.7315072,18.1403383 66.5749178,9.01247466 55.3190082,9.01247466 C46.8557805,9.01247466 39.1729284,14.3742644 36.2016394,22.3556108 C35.7674868,23.5196533 34.8378141,24.4281967 33.6681667,24.8275868 C32.4976034,25.2288217 31.2116325,25.0793963 30.1628884,24.4208176 C27.8785496,22.9883629 25.2635588,22.2310896 22.6009395,22.2310896 M55.3190082,59.034016 L22.6009395,59.034016 C10.1387452,59.034016 0.000274780118,48.917362 0.000274780118,36.4818468 C0.000274780118,24.0472541 10.1387452,13.9296777 22.6009395,13.9296777 C25.2699704,13.9296777 27.9051117,14.4102372 30.3927877,15.3363058 C35.4258436,6.4371922 44.9552181,0.7110627 55.3190082,0.7110627 C71.1206968,0.7110627 83.9749108,13.5634932 83.9749108,29.3601578 C83.9749108,45.445527 70.8523283,59.034016 55.3190082,59.034016" id="Fill-1"></path>
                            </g>
                            <ellipse id="Oval-40" cx="57.9542424" cy="54.8668519" rx="4.04575758" ry="4.07422737"></ellipse>
                            <ellipse id="Oval-40-Copy" cx="32.6207273" cy="20.6532431" rx="4.62072727" ry="4.6532431"></ellipse>
                        </g>
                    </g>
                </g>
                <g id="Page-1" opacity="0.2" transform="translate(74.000000, 170.000000)">
                    <g id="Group-3">
                        <mask id="mask-3" fill="white">
                            <use xlink:href="#path-2"></use>
                        </mask>
                        <g id="Clip-2"></g>
                        <path d="M-3.68253968,12.48 L120.603175,12.48 L120.603175,-4.8 L-3.68253968,-4.8 L-3.68253968,12.48 Z" id="Fill-1" fill="#145160" mask="url(#mask-3)"></path>
                    </g>
                    <g id="Group-6" transform="translate(14.730159, 16.320000)">
                        <mask id="mask-5" fill="white">
                            <use xlink:href="#path-4"></use>
                        </mask>
                        <g id="Clip-5"></g>
                        <path d="M-4.6031746,12.48 L91.9530159,12.48 L91.9530159,-4.8 L-4.6031746,-4.8 L-4.6031746,12.48 Z" id="Fill-4" fill="#145160" mask="url(#mask-5)"></path>
                    </g>
                </g>
            </g>
        </g>
    </g>
</svg>