<?xml version="1.0" encoding="UTF-8" standalone="no"?>
<svg width="262px" height="306px" viewBox="0 0 262 306" version="1.1" xmlns="http://www.w3.org/2000/svg" xmlns:xlink="http://www.w3.org/1999/xlink">
    <!-- Generator: Sketch 3.6 (26304) - http://www.bohemiancoding.com/sketch -->
    <title>Group 24</title>
    <desc>Created with Sketch.</desc>
    <defs>
        <filter x="-50%" y="-50%" width="200%" height="200%" filterUnits="objectBoundingBox" id="filter-1">
            <feOffset dx="0" dy="0" in="SourceAlpha" result="shadowOffsetOuter1"></feOffset>
            <feGaussianBlur stdDeviation="6" in="shadowOffsetOuter1" result="shadowBlurOuter1"></feGaussianBlur>
            <feColorMatrix values="0 0 0 0 0.0823529412   0 0 0 0 0.317647059   0 0 0 0 0.376470588  0 0 0 0.14 0" in="shadowBlurOuter1" type="matrix" result="shadowMatrixOuter1"></feColorMatrix>
            <feMerge>
                <feMergeNode in="shadowMatrixOuter1"></feMergeNode>
                <feMergeNode in="SourceGraphic"></feMergeNode>
            </feMerge>
        </filter>
        <filter x="-50%" y="-50%" width="200%" height="200%" filterUnits="objectBoundingBox" id="filter-2">
            <feOffset dx="0" dy="0" in="SourceAlpha" result="shadowOffsetOuter1"></feOffset>
            <feGaussianBlur stdDeviation="6" in="shadowOffsetOuter1" result="shadowBlurOuter1"></feGaussianBlur>
            <feColorMatrix values="0 0 0 0 0.0823529412   0 0 0 0 0.317647059   0 0 0 0 0.376470588  0 0 0 0.14 0" in="shadowBlurOuter1" type="matrix" result="shadowMatrixOuter1"></feColorMatrix>
            <feMerge>
                <feMergeNode in="shadowMatrixOuter1"></feMergeNode>
                <feMergeNode in="SourceGraphic"></feMergeNode>
            </feMerge>
        </filter>
        <filter x="-50%" y="-50%" width="200%" height="200%" filterUnits="objectBoundingBox" id="filter-3">
            <feOffset dx="0" dy="0" in="SourceAlpha" result="shadowOffsetOuter1"></feOffset>
            <feGaussianBlur stdDeviation="6" in="shadowOffsetOuter1" result="shadowBlurOuter1"></feGaussianBlur>
            <feColorMatrix values="0 0 0 0 0.0823529412   0 0 0 0 0.317647059   0 0 0 0 0.376470588  0 0 0 0.14 0" in="shadowBlurOuter1" type="matrix" result="shadowMatrixOuter1"></feColorMatrix>
            <feMerge>
                <feMergeNode in="shadowMatrixOuter1"></feMergeNode>
                <feMergeNode in="SourceGraphic"></feMergeNode>
            </feMerge>
        </filter>
        <filter x="-50%" y="-50%" width="200%" height="200%" filterUnits="objectBoundingBox" id="filter-4">
            <feOffset dx="0" dy="0" in="SourceAlpha" result="shadowOffsetOuter1"></feOffset>
            <feGaussianBlur stdDeviation="6" in="shadowOffsetOuter1" result="shadowBlurOuter1"></feGaussianBlur>
            <feColorMatrix values="0 0 0 0 0.0823529412   0 0 0 0 0.317647059   0 0 0 0 0.376470588  0 0 0 0.14 0" in="shadowBlurOuter1" type="matrix" result="shadowMatrixOuter1"></feColorMatrix>
            <feMerge>
                <feMergeNode in="shadowMatrixOuter1"></feMergeNode>
                <feMergeNode in="SourceGraphic"></feMergeNode>
            </feMerge>
        </filter>
    </defs>
    <g id="Page-1" stroke="none" stroke-width="1" fill="none" fill-rule="evenodd">
        <g id="Desktop-HD-Copy" transform="translate(-725.000000, -2715.000000)">
            <g id="Group-24" transform="translate(725.000000, 2715.000000)">
                <rect id="Rectangle-10-Copy" fill="#EAF8FA" x="0" y="0" width="262" height="306" rx="4"></rect>
                <g id="Group-16" transform="translate(71.000000, 81.000000)">
                    <g id="Group-11">
                        <g id="Group-9" transform="translate(34.830000, 50.257732)">
                            <path d="M41.549239,11.0961459 C41.549239,17.2241747 36.5815642,22.1922918 30.4540812,22.1922918 C24.3265981,22.1922918 19.3589234,17.2241747 19.3589234,11.0961459 C19.3589234,4.96811713 24.3265981,0 30.4540812,0 C36.5815642,0 41.549239,4.96811713 41.549239,11.0961459 L41.549239,11.0961459 Z" id="Stroke-1" stroke="#34BCCE" stroke-width="8" opacity="0.5"></path>
                            <path d="M57.8135081,63.3717708 C57.8135081,78.3022506 3.50219281,78.3022506 3.50219281,63.3717708 C3.50219281,48.4412911 15.6601195,36.2141614 30.658317,36.2141614 C45.6555814,36.2141614 57.8135081,48.4412911 57.8135081,63.3717708 L57.8135081,63.3717708 Z" id="Stroke-3" stroke="#8FDAE4" stroke-width="8"></path>
                            <ellipse id="Oval-14-Copy-2" fill="#2FACBD" cx="3.956" cy="65.3508256" rx="3.956" ry="3.96661643"></ellipse>
                            <ellipse id="Oval-14-Copy-3" fill="#2FACBD" cx="57.362" cy="65.3508256" rx="3.956" ry="3.96661643"></ellipse>
                        </g>
                        <g id="Page-1" transform="translate(0.000000, 37.371134)">
                            <path d="M36.8172245,18.4704942 C36.8172245,28.6713615 28.5753035,36.9409884 18.4086123,36.9409884 C8.241921,36.9409884 0,28.6713615 0,18.4704942 C0,8.26962684 8.241921,0 18.4086123,0 C28.5753035,0 36.8172245,8.26962684 36.8172245,18.4704942" id="Fill-1" fill="#FFFFFF" filter="url(#filter-1)"></path>
                            <path d="M16.1272512,27.1688083 L19.7774289,27.1688083 L19.7774289,18.4704942 L22.05879,18.4704942 L22.5150622,15.7236581 L19.7774289,15.7236581 L19.7774289,13.8924341 C19.7774289,13.0912736 19.7395583,12.5190161 20.6899733,12.5190161 L22.5150622,12.5190161 L22.5150622,9.77218006 L20.0402417,9.77218006 C17.1693769,9.77218006 16.1272512,10.9894862 16.1272512,13.4346281 L16.1272512,15.7236581 L14.3021623,15.7236581 L14.3021623,18.4704942 L16.1272512,18.4704942 L16.1272512,27.1688083 Z" id="Fill-3" fill="#2FACBD"></path>
                        </g>
                        <g id="Group-8" transform="translate(45.150000, 0.000000)">
                            <path d="M18.4086123,0 C8.24203776,0 0,8.26974398 0,18.4704942 C0,28.6712444 8.24203776,36.9409884 18.4086123,36.9409884 C28.5751867,36.9409884 36.8172245,28.6712444 36.8172245,18.4704942 C36.8172245,8.26974398 28.5751867,0 18.4086123,0 L18.4086123,0 Z" id="Shape" fill="#FFFFFF" filter="url(#filter-2)"></path>
                            <path d="M18.7247245,27.7212161 C13.8257439,27.7212161 9.85511565,23.7372403 9.85511565,18.8217914 C9.85511565,13.9063425 13.8257439,9.92236675 18.7247245,9.92236675 C21.1165623,9.92236675 23.1225722,10.804893 24.6584928,12.2421501 L22.1158716,14.7933185 C21.1949105,13.9137587 20.0270787,13.4628545 18.7232462,13.4628545 C15.8287972,13.4628545 13.4827857,15.9190957 13.4827857,18.8232747 C13.4827857,21.7274536 15.8302755,24.1822116 18.7247245,24.1822116 C21.351607,24.1822116 23.1417897,22.6707926 23.5039654,20.5987099 L18.7247245,20.5987099 L18.7247245,17.1902302 L27.0784177,17.1902302 C27.1818965,17.776109 27.2410272,18.3872029 27.2410272,19.0235117 C27.2410272,24.1080497 23.8469236,27.7212161 18.7247245,27.7212161 L18.7247245,27.7212161 Z" id="Path" fill="#2FACBD"></path>
                        </g>
                        <g id="Group-10" transform="translate(91.590000, 37.371134)">
                            <g id="Page-1" filter="url(#filter-3)" fill="#FFFFFF">
                                <path d="M37.2663591,18.6958164 C37.2663591,29.0211245 28.9238946,37.3916328 18.6331796,37.3916328 C8.34246449,37.3916328 0,29.0211245 0,18.6958164 C0,8.37050831 8.34246449,0 18.6331796,0 C28.9238946,0 37.2663591,8.37050831 37.2663591,18.6958164" id="Fill-1"></path>
                            </g>
                            <g id="Page-1" transform="translate(9.316590, 10.483742)" fill="#2FACBD">
                                <path d="M13.9637203,8.73140281 C13.9637203,11.2725089 11.8862788,13.337869 9.31658978,13.337869 C6.74690076,13.337869 4.66945927,11.2725089 4.66945927,8.73140281 C4.66945927,7.63780402 3.78387851,6.75126703 2.69145927,6.75126703 C1.59904004,6.75126703 0.71345927,7.63780402 0.71345927,8.73140281 C0.71345927,13.4658573 4.56815964,17.2981406 9.31658978,17.2981406 C14.0650199,17.2981406 17.9197203,13.4658573 17.9197203,8.73140281 C17.9197203,7.63780402 17.0341395,6.75126703 15.9417203,6.75126703 C14.8493011,6.75126703 13.9637203,7.63780402 13.9637203,8.73140281 L13.9637203,8.73140281 Z" id="-"></path>
                                <path d="M4.66945927,8.73140281 C4.66945927,6.19029671 6.74690076,4.12493661 9.31658978,4.12493661 C11.8862788,4.12493661 13.9637203,6.19029671 13.9637203,8.73140281 C13.9637203,9.82500161 14.8493011,10.7115386 15.9417203,10.7115386 C17.0341395,10.7115386 17.9197203,9.82500161 17.9197203,8.73140281 C17.9197203,3.99694836 14.0650199,0.16466505 9.31658978,0.16466505 C4.56815964,0.16466505 0.71345927,3.99694836 0.71345927,8.73140281 C0.71345927,9.82500161 1.59904004,10.7115386 2.69145927,10.7115386 C3.78387851,10.7115386 4.66945927,9.82500161 4.66945927,8.73140281 L4.66945927,8.73140281 Z" id="Stroke-3" fill-opacity="0.3"></path>
                            </g>
                        </g>
                    </g>
                </g>
                <g id="Group-15-Copy">
                    <rect id="Rectangle-11" fill="#00C3AE" x="0" y="0" width="262" height="20.101626" rx="4"></rect>
                    <rect id="Rectangle-11" fill="#00C3AE" x="0" y="13.9837398" width="262" height="20.9756098"></rect>
                    <g id="Group-17" transform="translate(6.986667, 6.991870)">
                        <path d="M3.60405301,6.99186992 C5.59451653,6.99186992 7.20810602,5.42668652 7.20810602,3.49593496 C7.20810602,1.5651834 5.59451653,0 3.60405301,0 C1.6135895,0 0,1.5651834 0,3.49593496 C0,5.42668652 1.6135895,6.99186992 3.60405301,6.99186992 Z" id="Oval-13" fill="#EAF8FA"></path>
                        <path d="M14.2530853,6.99186992 C16.2435488,6.99186992 17.8571383,5.42668652 17.8571383,3.49593496 C17.8571383,1.5651834 16.2435488,0 14.2530853,0 C12.2626218,0 10.6490323,1.5651834 10.6490323,3.49593496 C10.6490323,5.42668652 12.2626218,6.99186992 14.2530853,6.99186992 Z" id="Oval-13" fill="#2492A0"></path>
                    </g>
                </g>
                <g id="+-copy" filter="url(#filter-4)" transform="translate(189.000000, 232.000000)">
                    <ellipse id="Oval-5" fill="#34CEB9" cx="24.4533333" cy="24.4715447" rx="24.4533333" ry="24.4715447"></ellipse>
                    <path d="M18.3357113,26.2195122 C17.3734225,26.2195122 16.5933333,25.4436509 16.5933333,24.4715447 L16.5933333,24.4715447 C16.5933333,23.5061689 17.3728906,22.7235772 18.3357113,22.7235772 L30.5709554,22.7235772 C31.5332441,22.7235772 32.3133333,23.4994385 32.3133333,24.4715447 L32.3133333,24.4715447 C32.3133333,25.4369205 31.5337761,26.2195122 30.5709554,26.2195122 L18.3357113,26.2195122 L18.3357113,26.2195122 Z" id="Rectangle-62" fill="#FFFFFF"></path>
                    <path d="M26.2,30.5937228 C26.2,31.5567282 25.4247161,32.3373984 24.4533333,32.3373984 L24.4533333,32.3373984 C23.488676,32.3373984 22.7066667,31.5572606 22.7066667,30.5937228 L22.7066667,18.3493667 C22.7066667,17.3863612 23.4819506,16.6056911 24.4533333,16.6056911 L24.4533333,16.6056911 C25.4179907,16.6056911 26.2,17.3858289 26.2,18.3493667 L26.2,30.5937228 L26.2,30.5937228 Z" id="Rectangle-62" fill="#FFFFFF"></path>
                    <path id="Path-232" stroke="#979797" d=""></path>
                </g>
            </g>
        </g>
    </g>
</svg>