<?xml version="1.0" encoding="UTF-8" standalone="no"?>
<svg width="262px" height="306px" viewBox="0 0 262 306" version="1.1" xmlns="http://www.w3.org/2000/svg" xmlns:xlink="http://www.w3.org/1999/xlink">
    <!-- Generator: Sketch 3.6 (26304) - http://www.bohemiancoding.com/sketch -->
    <title>Group 23</title>
    <desc>Created with Sketch.</desc>
    <defs>
        <filter x="-50%" y="-50%" width="200%" height="200%" filterUnits="objectBoundingBox" id="filter-1">
            <feOffset dx="0" dy="0" in="SourceAlpha" result="shadowOffsetOuter1"></feOffset>
            <feGaussianBlur stdDeviation="6" in="shadowOffsetOuter1" result="shadowBlurOuter1"></feGaussianBlur>
            <feColorMatrix values="0 0 0 0 0.0823529412   0 0 0 0 0.317647059   0 0 0 0 0.376470588  0 0 0 0.14 0" in="shadowBlurOuter1" type="matrix" result="shadowMatrixOuter1"></feColorMatrix>
            <feMerge>
                <feMergeNode in="shadowMatrixOuter1"></feMergeNode>
                <feMergeNode in="SourceGraphic"></feMergeNode>
            </feMerge>
        </filter>
        <filter x="-50%" y="-50%" width="200%" height="200%" filterUnits="objectBoundingBox" id="filter-2">
            <feOffset dx="0" dy="0" in="SourceAlpha" result="shadowOffsetOuter1"></feOffset>
            <feGaussianBlur stdDeviation="6" in="shadowOffsetOuter1" result="shadowBlurOuter1"></feGaussianBlur>
            <feColorMatrix values="0 0 0 0 0.0823529412   0 0 0 0 0.317647059   0 0 0 0 0.376470588  0 0 0 0.14 0" in="shadowBlurOuter1" type="matrix" result="shadowMatrixOuter1"></feColorMatrix>
            <feMerge>
                <feMergeNode in="shadowMatrixOuter1"></feMergeNode>
                <feMergeNode in="SourceGraphic"></feMergeNode>
            </feMerge>
        </filter>
        <filter x="-50%" y="-50%" width="200%" height="200%" filterUnits="objectBoundingBox" id="filter-3">
            <feOffset dx="0" dy="1" in="SourceAlpha" result="shadowOffsetOuter1"></feOffset>
            <feGaussianBlur stdDeviation="2" in="shadowOffsetOuter1" result="shadowBlurOuter1"></feGaussianBlur>
            <feColorMatrix values="0 0 0 0 0   0 0 0 0 0   0 0 0 0 0  0 0 0 0.105 0" in="shadowBlurOuter1" type="matrix" result="shadowMatrixOuter1"></feColorMatrix>
            <feMerge>
                <feMergeNode in="shadowMatrixOuter1"></feMergeNode>
                <feMergeNode in="SourceGraphic"></feMergeNode>
            </feMerge>
        </filter>
        <filter x="-50%" y="-50%" width="200%" height="200%" filterUnits="objectBoundingBox" id="filter-4">
            <feOffset dx="0" dy="0" in="SourceAlpha" result="shadowOffsetOuter1"></feOffset>
            <feGaussianBlur stdDeviation="6" in="shadowOffsetOuter1" result="shadowBlurOuter1"></feGaussianBlur>
            <feColorMatrix values="0 0 0 0 0.0823529412   0 0 0 0 0.317647059   0 0 0 0 0.376470588  0 0 0 0.14 0" in="shadowBlurOuter1" type="matrix" result="shadowMatrixOuter1"></feColorMatrix>
            <feMerge>
                <feMergeNode in="shadowMatrixOuter1"></feMergeNode>
                <feMergeNode in="SourceGraphic"></feMergeNode>
            </feMerge>
        </filter>
        <filter x="-50%" y="-50%" width="200%" height="200%" filterUnits="objectBoundingBox" id="filter-5">
            <feOffset dx="0" dy="1" in="SourceAlpha" result="shadowOffsetOuter1"></feOffset>
            <feGaussianBlur stdDeviation="2" in="shadowOffsetOuter1" result="shadowBlurOuter1"></feGaussianBlur>
            <feColorMatrix values="0 0 0 0 0   0 0 0 0 0   0 0 0 0 0  0 0 0 0.105 0" in="shadowBlurOuter1" type="matrix" result="shadowMatrixOuter1"></feColorMatrix>
            <feMerge>
                <feMergeNode in="shadowMatrixOuter1"></feMergeNode>
                <feMergeNode in="SourceGraphic"></feMergeNode>
            </feMerge>
        </filter>
        <path id="path-6" d="M69.9937704,6.64634146 C68.3343854,6.60938836 67,5.24413621 67,3.57317073 C67,1.87678049 68.3654333,0.5 70.0628333,0.5 L180.163067,0.5 C181.839507,0.5 183.200894,1.8533128 183.22705,3.52416703 L183.22705,3.6223658 C183.201298,5.2737537 181.881222,6.60979166 180.232451,6.64634146 L69.9937704,6.64634146 L69.9937704,6.64634146 Z"></path>
        <path id="path-8" d="M155.220257,16.6453068 C155.181734,18.3087923 153.828272,19.6455732 152.158267,19.6455732 L70.0613,19.6455732 C68.3708,19.6455732 67,18.2672561 67,16.5724024 C67,14.8752439 68.3677333,13.5 70.0613,13.5 L152.158267,13.5 C153.824527,13.5 155.18168,14.8390741 155.220257,16.4997277 L155.220257,16.6453068 L155.220257,16.6453068 Z"></path>
    </defs>
    <g id="Page-1" stroke="none" stroke-width="1" fill="none" fill-rule="evenodd">
        <g id="Desktop-HD-Copy" transform="translate(-380.000000, -3140.000000)">
            <g id="Group-23" transform="translate(380.000000, 3140.000000)">
                <rect id="Rectangle-10-Copy-2" fill="#EAF8FA" x="0" y="0" width="262" height="306" rx="4"></rect>
                <g id="Group-15-Copy-2">
                    <rect id="Rectangle-11" fill="#00C3AE" x="0" y="0" width="262" height="20.101626" rx="4"></rect>
                    <rect id="Rectangle-11" fill="#00C3AE" x="0" y="13.9837398" width="262" height="20.9756098"></rect>
                    <g id="Group-17" transform="translate(6.986667, 6.991870)">
                        <path d="M3.60405301,6.99186992 C5.59451653,6.99186992 7.20810602,5.42668652 7.20810602,3.49593496 C7.20810602,1.5651834 5.59451653,0 3.60405301,0 C1.6135895,0 0,1.5651834 0,3.49593496 C0,5.42668652 1.6135895,6.99186992 3.60405301,6.99186992 Z" id="Oval-13" fill="#EAF8FA"></path>
                        <path d="M14.2530853,6.99186992 C16.2435488,6.99186992 17.8571383,5.42668652 17.8571383,3.49593496 C17.8571383,1.5651834 16.2435488,0 14.2530853,0 C12.2626218,0 10.6490323,1.5651834 10.6490323,3.49593496 C10.6490323,5.42668652 12.2626218,6.99186992 14.2530853,6.99186992 Z" id="Oval-13" fill="#2492A0"></path>
                    </g>
                </g>
                <g id="+-copy-2" filter="url(#filter-1)" transform="translate(189.000000, 232.000000)">
                    <ellipse id="Oval-5" fill="#34CEB9" cx="24.4533333" cy="24.4715447" rx="24.4533333" ry="24.4715447"></ellipse>
                    <path d="M18.3357113,26.2195122 C17.3734225,26.2195122 16.5933333,25.4436509 16.5933333,24.4715447 L16.5933333,24.4715447 C16.5933333,23.5061689 17.3728906,22.7235772 18.3357113,22.7235772 L30.5709554,22.7235772 C31.5332441,22.7235772 32.3133333,23.4994385 32.3133333,24.4715447 L32.3133333,24.4715447 C32.3133333,25.4369205 31.5337761,26.2195122 30.5709554,26.2195122 L18.3357113,26.2195122 L18.3357113,26.2195122 Z" id="Rectangle-62" fill="#FFFFFF"></path>
                    <path d="M26.2,30.5937228 C26.2,31.5567282 25.4247161,32.3373984 24.4533333,32.3373984 L24.4533333,32.3373984 C23.488676,32.3373984 22.7066667,31.5572606 22.7066667,30.5937228 L22.7066667,18.3493667 C22.7066667,17.3863612 23.4819506,16.6056911 24.4533333,16.6056911 L24.4533333,16.6056911 C25.4179907,16.6056911 26.2,17.3858289 26.2,18.3493667 L26.2,30.5937228 L26.2,30.5937228 Z" id="Rectangle-62" fill="#FFFFFF"></path>
                    <path id="Path-232" stroke="#979797" d=""></path>
                </g>
                <g id="Group-25" transform="translate(32.000000, 67.000000)">
                    <ellipse id="Oval" fill="#FFFFFF" filter="url(#filter-2)" cx="24.5333333" cy="28.0853659" rx="24.5333333" ry="24.5853659"></ellipse>
                    <path d="M31.5452404,25.0053135 C30.9286635,21.8607222 28.1812692,19.5 24.8807692,19.5 C22.2603173,19.5 19.9844231,20.9948202 18.8510096,23.182362 C16.12175,23.4740343 14,25.7982974 14,28.6147575 C14,31.6317423 16.4391058,34.083612 19.4403846,34.083612 L31.2278846,34.083612 C33.7304615,34.083612 35.7615385,32.0419064 35.7615385,29.5262333 C35.7615385,27.1199373 33.9027404,25.1693792 31.5452404,25.0053135 L31.5452404,25.0053135 Z" id="Shape" fill="#34AFCE"></path>
                    <path d="M162.833333,38.040503 L162.833333,33.4959552 C162.833333,31.2890501 161.046564,29.5 158.837504,29.5 L70.9958293,29.5 C68.7889937,29.5 67,31.2894201 67,33.5016268 L67,48.5471537 C67,50.7571912 68.7867695,52.5487805 70.9958293,52.5487805 L158.837504,52.5487805 C161.04434,52.5487805 162.833333,50.7566774 162.833333,48.5426082 L162.833333,38.040503 Z" id="Rectangle-117-Copy-40" fill="#34AFCE" filter="url(#filter-3)"></path>
                    <g id="Group-13" opacity="0.7" transform="translate(126.000000, 37.500000)" fill="#FFFFFF">
                        <path d="M1.53333333,0.768292501 L1.53333333,5.81364997 C1.53333333,6.2379663 1.87658169,6.58194265 2.3,6.58194265 C2.72341831,6.58194265 3.06666667,6.2379663 3.06666667,5.81364997 L3.06666667,0.768292501 C3.06666667,0.343976169 2.72341831,-1.81630654e-07 2.3,-1.81630654e-07 C1.87658169,-1.81630654e-07 1.53333333,0.343976169 1.53333333,0.768292501 L1.53333333,0.768292501 Z" id="Stroke-1" transform="translate(2.300000, 3.290971) rotate(-180.000000) translate(-2.300000, -3.290971) "></path>
                        <path d="M1.31297662,6.71744407 L2.85418315,5.14878398 L1.75880863,5.1459664 L3.28426877,6.71462648 C3.579783,7.01850947 4.06516908,7.0247856 4.36840893,6.72864461 C4.67164877,6.43250363 4.67791162,5.9460881 4.38239739,5.64220511 L2.85693724,4.07354503 C2.55709438,3.76521083 2.06298115,3.76393984 1.76156272,4.07072744 L0.220356199,5.63938753 C-0.0767108473,5.94174624 -0.0729398571,6.42818758 0.228778942,6.72588467 C0.530497741,7.02358177 1.01590958,7.01980278 1.31297662,6.71744407 L1.31297662,6.71744407 Z" id="Stroke-3" transform="translate(2.300000, 5.394086) rotate(-180.000000) translate(-2.300000, -5.394086) "></path>
                    </g>
                    <path d="M102,41.0656463 C102,40.033568 102.343847,39.1812839 103.03155,38.5087683 C103.719253,37.8362527 104.561428,37.5 105.5581,37.5 C106.31557,37.5 106.988314,37.6930956 107.57635,38.0792927 C108.164386,38.4654897 108.584643,39.008155 108.837133,39.7073049 L107.152767,39.7073049 C106.840476,39.0947164 106.308926,38.7884268 105.5581,38.7884268 C104.926875,38.7884268 104.413596,38.996504 104.01825,39.4126646 C103.622904,39.8288253 103.425233,40.3814783 103.425233,41.0706402 C103.425233,41.7598022 103.622904,42.3124552 104.01825,42.7286159 C104.413596,43.1447765 104.898636,43.3528537 105.473383,43.3528537 C106.048131,43.3528537 106.499948,43.2113612 106.82885,42.928372 C107.157752,42.6453827 107.362066,42.2641853 107.4418,41.7847683 L105.129533,41.7847683 L105.129533,40.7160732 L108.946767,40.7160732 L108.946767,41.7847683 C108.827166,42.5438453 108.455081,43.2080276 107.8305,43.7773354 C107.205919,44.3466431 106.420221,44.6312927 105.473383,44.6312927 C104.526545,44.6312927 103.710948,44.2950399 103.026567,43.6225244 C102.342185,42.9500088 102,42.0977247 102,41.0656463 L102,41.0656463 Z M112.385267,44.6512683 C111.581285,44.6512683 110.926814,44.3899233 110.421833,43.8672256 C109.916853,43.3445279 109.664367,42.6537116 109.664367,41.7947561 C109.664367,40.9358006 109.918514,40.2483136 110.426817,39.7322744 C110.935119,39.2162352 111.592913,38.9582195 112.400217,38.9582195 C113.207521,38.9582195 113.870297,39.2095768 114.388567,39.7122988 C114.906836,40.2150208 115.165967,40.8858617 115.165967,41.7248415 C115.165967,41.91794 115.152678,42.0977187 115.1261,42.2641829 L111.099567,42.2641829 C111.132789,42.6237457 111.265677,42.9133891 111.498233,43.133122 C111.73079,43.3528548 112.026465,43.4627195 112.385267,43.4627195 C112.870314,43.4627195 113.22911,43.2629654 113.461667,42.8634512 L114.9766,42.8634512 C114.817133,43.3894782 114.508169,43.8189496 114.0497,44.151878 C113.591231,44.4848065 113.036425,44.6512683 112.385267,44.6512683 L112.385267,44.6512683 Z M113.307183,40.4763659 C113.058015,40.256633 112.757357,40.1467683 112.4052,40.1467683 C112.053043,40.1467683 111.759029,40.256633 111.52315,40.4763659 C111.287271,40.6960987 111.146078,40.9890713 111.099567,41.3552927 L113.710833,41.3552927 C113.6909,40.9890713 113.556351,40.6960987 113.307183,40.4763659 L113.307183,40.4763659 Z M119.082867,43.3928049 L119.082867,44.5713659 L118.195833,44.5713659 C117.631053,44.5713659 117.195846,44.4415257 116.8902,44.1818415 C116.584554,43.9221572 116.431733,43.4926859 116.431733,42.8934146 L116.431733,40.1867195 L115.8437,40.1867195 L115.8437,39.038122 L116.431733,39.038122 L116.431733,37.6697927 L117.837033,37.6697927 L117.837033,39.038122 L119.0729,39.038122 L119.0729,40.1867195 L117.837033,40.1867195 L117.837033,42.8934146 C117.837033,43.073196 117.880222,43.2013716 117.9666,43.2779451 C118.052978,43.3545187 118.202477,43.3928049 118.4151,43.3928049 L119.082867,43.3928049 Z" id="Get" fill="#FFFFFF" opacity="0.699999988"></path>
                    <g id="Group-12-Copy" transform="translate(0.000000, 78.500000)">
                        <ellipse id="Oval" fill="#FFFFFF" filter="url(#filter-4)" cx="24.5333333" cy="24.5853659" rx="24.5333333" ry="24.5853659"></ellipse>
                        <g id="Group-14" transform="translate(67.000000, 30.000000)">
                            <g id="Group" transform="translate(0.466667, 0.658537)" filter="url(#filter-5)" fill="#34AFCE">
                                <path d="M103.5,8.54050296 L103.5,3.99595524 C103.5,1.7890501 101.703564,0 99.5060957,0 L3.99390432,0 C1.78813187,0 0,1.78942005 0,4.00162676 L0,19.0471537 C0,21.2571912 1.79643631,23.0487805 3.99390432,23.0487805 L99.5060957,23.0487805 C101.711868,23.0487805 103.5,21.2566774 103.5,19.0426082 L103.5,8.54050296 Z" id="Rectangle-117-Copy-40"></path>
                            </g>
                            <path d="M35.71925,9.66296951 C35.5431713,9.80612876 35.4551333,10.0042182 35.4551333,10.2572439 C35.4551333,10.5102696 35.519916,10.708359 35.6494833,10.8515183 C35.7790506,10.9946775 35.9501434,11.1045423 36.1627667,11.1811159 C36.37539,11.2576894 36.6079432,11.3259387 36.8604333,11.3858659 C37.1129235,11.445793 37.3654098,11.5190362 37.6179,11.6055976 C37.8703902,11.692159 38.1029434,11.7986945 38.3155667,11.9252073 C38.52819,12.0517201 38.6992827,12.2364927 38.82885,12.4795305 C38.9584173,12.7225683 39.0232,13.0172056 39.0232,13.3634512 C39.0232,13.9360882 38.7956301,14.428815 38.3404833,14.8416463 C37.8853366,15.2544777 37.2806982,15.4608902 36.52655,15.4608902 C35.7724018,15.4608902 35.1627801,15.2827762 34.6976667,14.9265427 C34.2325532,14.5703092 34,14.0692593 34,13.423378 L35.495,13.423378 C35.5481558,14.0359665 35.8969857,14.3422561 36.5415,14.3422561 C36.8604349,14.3422561 37.1129213,14.2590252 37.2989667,14.092561 C37.485012,13.9260967 37.5780333,13.7047026 37.5780333,13.428372 C37.5780333,13.1520413 37.4551123,12.9339764 37.2092667,12.7741707 C36.963421,12.6143651 36.6660851,12.4945126 36.31725,12.4146098 C35.9684149,12.3347069 35.617924,12.2381591 35.2657667,12.1249634 C34.9136094,12.0117677 34.6146123,11.8136782 34.3687667,11.530689 C34.122921,11.2476998 34,10.8731609 34,10.407061 C34,9.77449684 34.229231,9.26845312 34.6877,8.88891463 C35.146169,8.50937615 35.7358575,8.31960976 36.4567833,8.31960976 C37.1777092,8.31960976 37.7574311,8.48440689 38.1959667,8.8140061 C38.6345022,9.14360531 38.8736998,9.64465517 38.9135667,10.3171707 L37.3787,10.3171707 C37.3521221,10.0508279 37.2524564,9.83942151 37.0797,9.68294512 C36.9069436,9.52646873 36.6810347,9.44823171 36.4019667,9.44823171 C36.1228986,9.44823171 35.8953287,9.51981026 35.71925,9.66296951 L35.71925,9.66296951 Z M41.774,8 L41.774,10.6867195 C42.1261573,10.0807897 42.6975738,9.77782927 43.4882667,9.77782927 C44.119492,9.77782927 44.6344313,9.98590646 45.0331,10.4020671 C45.4317687,10.8182277 45.6311,11.39585 45.6311,12.1349512 L45.6311,15.3909756 L44.2357667,15.3909756 L44.2357667,12.3347073 C44.2357667,11.9019003 44.1261344,11.5706414 43.9068667,11.3409207 C43.6875989,11.1112001 43.3886019,10.9963415 43.0098667,10.9963415 C42.6311314,10.9963415 42.3304733,11.1112001 42.1078833,11.3409207 C41.8852933,11.5706414 41.774,11.9019003 41.774,12.3347073 L41.774,15.3909756 L40.3687,15.3909756 L40.3687,8 L41.774,8 Z M51.0330333,12.6243537 C51.0330333,12.1183023 50.886857,11.7204588 50.5945,11.430811 C50.302143,11.1411632 49.9599575,10.9963415 49.5679333,10.9963415 C49.1759092,10.9963415 48.8353848,11.1394986 48.54635,11.4258171 C48.2573152,11.7121356 48.1128,12.1083145 48.1128,12.6143659 C48.1128,13.1204172 48.2589763,13.5199254 48.5513333,13.8129024 C48.8436904,14.1058795 49.1842147,14.2523659 49.5729167,14.2523659 C49.9616186,14.2523659 50.302143,14.1075441 50.5945,13.8178963 C50.886857,13.5282486 51.0330333,13.130405 51.0330333,12.6243537 L51.0330333,12.6243537 Z M46.6875667,12.6143659 C46.6875667,11.7820446 46.9334087,11.1012161 47.4251,10.5718598 C47.9167913,10.0425035 48.5413629,9.77782927 49.2988333,9.77782927 C50.0563038,9.77782927 50.6343647,10.0907774 51.0330333,10.7166829 L51.0330333,9.85773171 L52.4283667,9.85773171 L52.4283667,15.3909756 L51.0330333,15.3909756 L51.0330333,14.4621098 C50.6144312,15.1346253 50.0330482,15.470878 49.2888667,15.470878 C48.5446852,15.470878 47.9250969,15.2028746 47.4300833,14.6668598 C46.9350697,14.1308449 46.6875667,13.4466871 46.6875667,12.6143659 L46.6875667,12.6143659 Z M55.3286667,9.85773171 L55.3286667,10.8365366 C55.7007574,10.1307282 56.238952,9.77782927 56.9432667,9.77782927 L56.9432667,11.2160732 L56.5944333,11.2160732 C56.1758312,11.2160732 55.8602233,11.3209441 55.6476,11.530689 C55.4349767,11.740434 55.3286667,12.101656 55.3286667,12.6143659 L55.3286667,15.3909756 L53.9233667,15.3909756 L53.9233667,9.85773171 L55.3286667,9.85773171 Z M60.2721333,15.470878 C59.4681515,15.470878 58.8136803,15.2095331 58.3087,14.6868354 C57.8037197,14.1641376 57.5512333,13.4733214 57.5512333,12.6143659 C57.5512333,11.7554103 57.8053808,11.0679233 58.3136833,10.5518841 C58.8219859,10.035845 59.4797793,9.77782927 60.2870833,9.77782927 C61.0943874,9.77782927 61.7571641,10.0291865 62.2754333,10.5319085 C62.7937026,11.0346306 63.0528333,11.7054714 63.0528333,12.5444512 C63.0528333,12.7375497 63.0395446,12.9173284 63.0129667,13.0837927 L58.9864333,13.0837927 C59.0196557,13.4433555 59.1525433,13.7329989 59.3851,13.9527317 C59.6176567,14.1724645 59.9133315,14.2823293 60.2721333,14.2823293 C60.7571802,14.2823293 61.1159766,14.0825752 61.3485333,13.683061 L62.8634667,13.683061 C62.7039992,14.209088 62.3950356,14.6385593 61.9365667,14.9714878 C61.4780977,15.3044163 60.9232921,15.470878 60.2721333,15.470878 L60.2721333,15.470878 Z M61.19405,11.2959756 C60.9448821,11.0762428 60.644224,10.966378 60.2920667,10.966378 C59.9399094,10.966378 59.6458956,11.0762428 59.4100167,11.2959756 C59.1741377,11.5157084 59.0329447,11.8086811 58.9864333,12.1749024 L61.5977,12.1749024 C61.5777666,11.8086811 61.4432179,11.5157084 61.19405,11.2959756 L61.19405,11.2959756 Z" id="Share" fill="#FFFFFF" opacity="0.699999988"></path>
                            <g id="Group-26" opacity="0.699999988" transform="translate(70.000000, 9.000000)" fill="#FFFFFF">
                                <path d="M4.25320062,1.43360491 L6.18435465,3.18742504 L6.18435465,2.04883533 L4.25320062,3.80265545 C3.93945318,4.08759211 3.91560857,4.5734609 4.19994219,4.88787377 C4.48427581,5.20228663 4.9691163,5.22618182 5.28286374,4.94124516 L7.21401777,3.18742504 C7.54979791,2.88247889 7.54979791,2.35378147 7.21401777,2.04883533 L5.28286374,0.295015208 C4.9691163,0.0100785487 4.48427581,0.0339737351 4.19994219,0.348386601 C3.91560857,0.662799466 3.93945318,1.14866825 4.25320062,1.43360491 L4.25320062,1.43360491 Z" id="Stroke-1"></path>
                                <path d="M1.63903402,5.32323651 C1.64465043,4.8119292 1.87162898,4.32281375 2.30247856,3.9391951 C2.73495583,3.55412988 3.3277106,3.34775854 3.9708046,3.34775854 L6.58762299,3.34775854 C7.0110413,3.34775854 7.35428966,3.00378219 7.35428966,2.57946585 C7.35428966,2.15514952 7.0110413,1.81117317 6.58762299,1.81117317 L3.9708046,1.81117317 C2.96673289,1.81117317 2.00976453,2.1443478 1.28404297,2.79050923 C0.533194637,3.45904748 0.116214778,4.35759619 0.105793571,5.30632325 C0.101132988,5.73061388 0.440582404,6.07835555 0.863975062,6.08302602 C1.28736772,6.08769649 1.63437343,5.74752713 1.63903402,5.32323651 L1.63903402,5.32323651 Z" id="Stroke-3"></path>
                            </g>
                        </g>
                    </g>
                    <path d="M180.163833,80.5 L70.0636,80.5 C68.3662,80.5 67,81.8760122 67,83.5731707 C67,85.2672561 68.3715667,86.6463415 70.0636,86.6463415 L180.163833,86.6463415 C181.862,86.6463415 183.227433,85.2703293 183.227433,83.5731707 C183.227433,81.8798537 181.855867,80.5 180.163833,80.5" id="Fill-1-Copy" fill="#BFD6DB"></path>
                    <path d="M152.159033,93.5 L70.0628333,93.5 C68.3685,93.5 67,94.8760122 67,96.5731707 C67,98.2672561 68.3715667,99.6463415 70.0628333,99.6463415 L152.159033,99.6463415 C153.853367,99.6463415 155.2211,98.2703293 155.2211,96.5731707 C155.2211,94.8790854 153.8503,93.5 152.159033,93.5" id="Fill-4-Copy" fill="#BFD6DB"></path>
                    <path d="M24.2,103.719512 C26.7415,103.719512 28.8,101.656646 28.8,99.1097561 C28.8,96.5628659 26.7415,94.5 24.2,94.5 C21.6585,94.5 19.6,96.5628659 19.6,99.1097561 C19.6,101.656646 21.6585,103.719512 24.2,103.719512 L24.2,103.719512 Z M24.2,106.02439 C21.1295,106.02439 15,107.568659 15,110.634146 L15,112.939024 L33.4,112.939024 L33.4,110.634146 C33.4,107.568659 27.2705,106.02439 24.2,106.02439 L24.2,106.02439 Z" id="Shape" fill="#34AFCE"></path>
                    <mask id="mask-7" fill="white">
                        <use xlink:href="#path-6"></use>
                    </mask>
                    <g id="Clip-2"></g>
                    <path d="M180.163833,0.5 L70.0636,0.5 C68.3662,0.5 67,1.8760122 67,3.57317073 C67,5.2672561 68.3715667,6.64634146 70.0636,6.64634146 L180.163833,6.64634146 C181.862,6.64634146 183.227433,5.27032927 183.227433,3.57317073 C183.227433,1.87985366 181.855867,0.5 180.163833,0.5" id="Fill-1" fill="#BFD6DB" mask="url(#mask-7)"></path>
                    <mask id="mask-9" fill="white">
                        <use xlink:href="#path-8"></use>
                    </mask>
                    <g id="Clip-5"></g>
                    <path d="M152.159033,13.5 L70.0628333,13.5 C68.3685,13.5 67,14.8760122 67,16.5731707 C67,18.2672561 68.3715667,19.6463415 70.0628333,19.6463415 L152.159033,19.6463415 C153.853367,19.6463415 155.2211,18.2703293 155.2211,16.5731707 C155.2211,14.8790854 153.8503,13.5 152.159033,13.5" id="Fill-4" fill="#BFD6DB" mask="url(#mask-9)"></path>
                </g>
            </g>
        </g>
    </g>
</svg>