<?xml version="1.0" encoding="UTF-8" standalone="no"?>
<svg width="85px" height="85px" viewBox="0 0 85 85" version="1.1" xmlns="http://www.w3.org/2000/svg" xmlns:xlink="http://www.w3.org/1999/xlink">
    <!-- Generator: Sketch 3.6 (26304) - http://www.bohemiancoding.com/sketch -->
    <title>Page 1</title>
    <desc>Created with Sketch.</desc>
    <defs></defs>
    <g id="Page-1" stroke="none" stroke-width="1" fill="none" fill-rule="evenodd">
        <g id="Desktop-HD-Copy" transform="translate(-508.000000, -5654.000000)">
            <g id="Page-1" transform="translate(508.000000, 5654.000000)">
                <path d="M84.0515625,42.3617188 C84.0515625,65.5160188 65.2808625,84.2867188 42.1265625,84.2867188 C18.9722625,84.2867188 0.2015625,65.5160188 0.2015625,42.3617188 C0.2015625,19.2074188 18.9722625,0.43671875 42.1265625,0.43671875 C65.2808625,0.43671875 84.0515625,19.2074188 84.0515625,42.3617188" id="Fill-1" fill="#FFFFFF"></path>
                <path d="M38.5262531,46.6337452 L49.3167,46.6337452 C50.2731141,46.6337452 51.0565875,47.4172187 51.0565875,48.3736327 C51.0565875,49.3274265 50.2678734,50.1148304 49.3167,50.1148304 L38.5262531,50.1148304 C37.5711492,50.1148304 36.7863656,49.3326671 36.7863656,48.3736327 C36.7863656,47.4211491 37.5737695,46.6337452 38.5262531,46.6337452 M38.5262531,35.8131648 L43.9568508,35.8131648 C44.914575,35.8131648 45.6980484,36.5966382 45.6980484,37.5530523 C45.6980484,38.506846 44.9093344,39.2942499 43.9568508,39.2942499 L38.5262531,39.2942499 C37.5698391,39.2942499 36.7863656,38.5120866 36.7863656,37.5530523 C36.7863656,36.6018788 37.5737695,35.8131648 38.5262531,35.8131648 M38.5262531,27.949607 L44.8529977,27.949607 C48.8712469,27.949607 53.5327828,32.4368921 53.5327828,36.7106218 L53.5327828,37.5491218 C53.5327828,38.489814 54.2926734,39.2942499 55.5792469,39.2942499 L56.8920234,39.2942499 C58.5139969,39.2942499 58.9031133,40.1956374 58.9031133,41.5293765 L58.9031133,48.711653 C58.9031133,53.7452734 54.6516563,57.8644046 49.7503617,57.8644046 L37.7349188,57.8644046 C33.3210023,57.8644046 29.025,53.7898187 29.025,48.7994335 L29.025,37.4508601 C29.025,32.1381765 33.2122594,27.949607 38.5262531,27.949607" id="Fill-1" fill="#155160"></path>
            </g>
        </g>
    </g>
</svg>