<?xml version="1.0" encoding="UTF-8" standalone="no"?>
<svg width="86px" height="86px" viewBox="0 0 86 86" version="1.1" xmlns="http://www.w3.org/2000/svg" xmlns:xlink="http://www.w3.org/1999/xlink">
    <!-- Generator: Sketch 3.6 (26304) - http://www.bohemiancoding.com/sketch -->
    <title>Group 28</title>
    <desc>Created with Sketch.</desc>
    <defs></defs>
    <g id="Page-1" stroke="none" stroke-width="1" fill="none" fill-rule="evenodd">
        <g id="Desktop-HD-Copy" transform="translate(-739.000000, -5654.000000)">
            <g id="Group-28" transform="translate(739.000000, 5654.000000)">
                <g id="Group-20" fill="#FFFFFF">
                    <g id="Page-1-Copy-3">
                        <path d="M43,86 C19.252,86 0,66.748 0,43 C0,19.252 19.252,0 43,0 C66.748,0 86,19.252 86,43 C86,66.748 66.748,86 43,86 Z" id="Fill-1"></path>
                    </g>
                </g>
                <g id="Page-1" transform="translate(24.000000, 28.000000)">
                    <path d="M36.9665242,0 L0.520655271,0 C0.234294872,0 0,0.235020243 0,0.522267206 L0,27.6801619 C0,27.9674089 0.234294872,28.2024291 0.520655271,28.2024291 L22.0008091,28.2024291 L36.6489245,39.5826316 C36.7374359,39.6505263 36.8467735,39.6923077 36.9665242,39.6923077 C37.2528846,39.6923077 37.4871795,39.4572874 37.4871795,39.1700405 L37.4871795,0.522267206 C37.4871795,0.235020243 37.2528846,0 36.9665242,0" id="Fill-1" fill="#155160"></path>
                    <path d="M24.991453,15.6680162 C22.5266709,15.6680162 19.7849003,16.8901215 19.7849003,18.5404858 L19.7849003,20.8906883 L30.1980057,20.8906883 L30.1980057,18.5404858 C30.1980057,16.8901215 27.4572764,15.6680162 24.991453,15.6680162 M24.991453,13.5789474 C26.1421011,13.5789474 27.0740741,12.6409555 27.0740741,11.4898785 C27.0740741,10.335668 26.1421011,9.40080972 24.991453,9.40080972 C23.8408048,9.40080972 22.9088319,10.335668 22.9088319,11.4898785 C22.9088319,12.6409555 23.8408048,13.5789474 24.991453,13.5789474" id="Fill-3" fill="#FFFFFF" opacity="0.700000048"></path>
                    <path d="M14.5783476,14.6234818 C11.0639245,14.6234818 7.28917379,16.4931984 7.28917379,18.8016194 L7.28917379,20.8906883 L21.8675214,20.8906883 L21.8675214,18.8016194 C21.8675214,16.4931984 18.0927707,14.6234818 14.5783476,14.6234818 M14.5783476,12.534413 C16.3017165,12.534413 17.7022792,11.1295142 17.7022792,9.40080972 C17.7022792,7.67210526 16.3017165,6.26720648 14.5783476,6.26720648 C12.8549786,6.26720648 11.454416,7.67210526 11.454416,9.40080972 C11.454416,11.1295142 12.8549786,12.534413 14.5783476,12.534413" id="Fill-5" fill="#FFFFFF"></path>
                </g>
            </g>
        </g>
    </g>
</svg>