<?xml version="1.0" encoding="UTF-8" standalone="no"?>
<svg width="86px" height="86px" viewBox="0 0 86 86" version="1.1" xmlns="http://www.w3.org/2000/svg" xmlns:xlink="http://www.w3.org/1999/xlink">
    <!-- Generator: Sketch 3.6 (26304) - http://www.bohemiancoding.com/sketch -->
    <title>Group 35</title>
    <desc>Created with Sketch.</desc>
    <defs></defs>
    <g id="Page-1" stroke="none" stroke-width="1" fill="none" fill-rule="evenodd">
        <g id="Desktop-HD-Copy" transform="translate(-628.000000, -5824.000000)">
            <g id="Group-35" transform="translate(628.000000, 5824.000000)">
                <g id="Page-1-Copy-4" fill="#FFFFFF">
                    <path d="M43,86 C19.252,86 0,66.748 0,43 C0,19.252 19.252,0 43,0 C66.748,0 86,19.252 86,43 C86,66.748 66.748,86 43,86 Z" id="Fill-1"></path>
                </g>
                <path d="M39.4301994,61.8012821 L46.2905983,61.8012821 L46.2905983,45.400641 L50.5783476,45.400641 L51.4358974,40.2214912 L46.2905983,40.2214912 L46.2905983,36.7687247 C46.2905983,35.2581393 46.2194217,34.1791498 48.005698,34.1791498 L51.4358974,34.1791498 L51.4358974,29 L46.784547,29 C41.3888433,29 39.4301994,31.2952266 39.4301994,35.9055331 L39.4301994,40.2214912 L36,40.2214912 L36,45.400641 L39.4301994,45.400641 L39.4301994,61.8012821 Z" id="Page-1" fill="#155160"></path>
            </g>
        </g>
    </g>
</svg>