<?xml version="1.0" encoding="UTF-8" standalone="no"?>
<svg width="271px" height="180px" viewBox="0 0 271 180" version="1.1" xmlns="http://www.w3.org/2000/svg" xmlns:xlink="http://www.w3.org/1999/xlink">
    <!-- Generator: Sketch 3.7.2 (28276) - http://www.bohemiancoding.com/sketch -->
    <title>Group 4</title>
    <desc>Created with Sketch.</desc>
    <defs></defs>
    <g id="Page-1" stroke="none" stroke-width="1" fill="none" fill-rule="evenodd">
        <g id="Desktop-HD-Copy-3" transform="translate(0.000000, -81.000000)">
            <g id="Group-4" transform="translate(0.000000, 81.000000)">
                <path d="M204,44.9945542 C216.195505,44.7286546 226,34.7593085 226,22.5 C226,10.2406915 216.195505,0.271345424 204,0.00544583366 L204,0 L68,0 L68,45 L204,45 L204,44.9945542 Z" id="Combined-Shape" fill="#CBE6EA"></path>
                <path d="M68,44.9945542 C80.1955053,44.7286546 90,34.7593085 90,22.5 C90,10.2406915 80.1955053,0.271345424 68,0.00544583366 L68,0 L0,0 L0,45 L68,45 L68,44.9945542 Z" id="Combined-Shape-Copy" fill="#51A9B5"></path>
                <path d="M160,89.9945542 C172.195505,89.7286546 182,79.7593085 182,67.5 C182,55.2406915 172.195505,45.2713454 160,45.0054458 L160,45 L0,45 L0,90 L160,90 L160,89.9945542 Z" id="Combined-Shape-Copy-2" fill="#51A9B5"></path>
                <path d="M88,134.994554 C100.195505,134.728655 110,124.759309 110,112.5 C110,100.240691 100.195505,90.2713454 88,90.0054458 L88,90 L0,90 L0,135 L88,135 L88,134.994554 Z" id="Combined-Shape-Copy-3" fill="#C5F0EC"></path>
                <path d="M131,179.994554 C143.195505,179.728655 153,169.759309 153,157.5 C153,145.240691 143.195505,135.271345 131,135.005446 L131,135 L0,135 L0,180 L131,180 L131,179.994554 Z" id="Combined-Shape-Copy-4" fill="#C5F0EC"></path>
                <path d="M92.3691406,134.994554 C104.564646,134.728655 114.369141,124.759309 114.369141,112.5 C114.369141,100.240691 104.564646,90.2713454 92.3691406,90.0054458 L92.3691406,90 L48,90 L48,135 L92.3691406,135 L92.3691406,134.994554 Z" id="Combined-Shape-Copy-3" fill="#BCEAE8" transform="translate(81.184570, 112.500000) rotate(-180.000000) translate(-81.184570, -112.500000) "></path>
                <ellipse id="Oval-114" fill="#9ACED5" cx="67.5" cy="22.5" rx="22.5" ry="22.5"></ellipse>
                <ellipse id="Oval-114-Copy-5" fill="#7FCBD6" cx="248.5" cy="22.5" rx="22.5" ry="22.5"></ellipse>
                <ellipse id="Oval-114-Copy-7" fill="#449DA7" cx="159.5" cy="67.5" rx="22.5" ry="22.5"></ellipse>
                <ellipse id="Oval-114-Copy-8" fill="#E6F0F2" cx="114.5" cy="112.5" rx="22.5" ry="22.5"></ellipse>
                <ellipse id="Oval-114-Copy-9" fill="#4A808B" cx="136.5" cy="157.5" rx="22.5" ry="22.5"></ellipse>
            </g>
        </g>
    </g>
</svg>