<?xml version="1.0" encoding="UTF-8" standalone="no"?>
<svg width="312px" height="180px" viewBox="0 0 312 180" version="1.1" xmlns="http://www.w3.org/2000/svg" xmlns:xlink="http://www.w3.org/1999/xlink">
    <!-- Generator: Sketch 3.7.2 (28276) - http://www.bohemiancoding.com/sketch -->
    <title>Group 5</title>
    <desc>Created with Sketch.</desc>
    <defs></defs>
    <g id="Page-1" stroke="none" stroke-width="1" fill="none" fill-rule="evenodd">
        <g id="Desktop-HD-Copy-3" transform="translate(-1100.000000, -323.000000)">
            <g id="Group-5" transform="translate(1100.000000, 323.000000)">
                <path d="M290.113281,44.9945542 C302.308787,44.7286546 312.113281,34.7593085 312.113281,22.5 C312.113281,10.2406915 302.308787,0.271345424 290.113281,0.00544583366 L290.113281,-5.68434189e-14 L156,-5.68434189e-14 L156,45 L290.113281,45 L290.113281,44.9945542 Z" id="Combined-Shape-Copy-6" fill="#00C2AE" transform="translate(234.056641, 22.500000) rotate(-180.000000) translate(-234.056641, -22.500000) "></path>
                <path d="M290.255859,89.9945542 C302.451365,89.7286546 312.255859,79.7593085 312.255859,67.5 C312.255859,55.2406915 302.451365,45.2713454 290.255859,45.0054458 L290.255859,45 L157,45 L157,90 L290.255859,90 L290.255859,89.9945542 Z" id="Combined-Shape-Copy-11" fill="#00C2AE" transform="translate(234.627930, 67.500000) rotate(-180.000000) translate(-234.627930, -67.500000) "></path>
                <path d="M290,134.994554 C302.195505,134.728655 312,124.759309 312,112.5 C312,100.240691 302.195505,90.2713454 290,90.0054458 L290,90 L135,90 L135,135 L290,135 L290,134.994554 Z" id="Combined-Shape-Copy-14" fill="#00C2AE" transform="translate(223.500000, 112.500000) rotate(-180.000000) translate(-223.500000, -112.500000) "></path>
                <path d="M181,179.994554 C193.195505,179.728655 203,169.759309 203,157.5 C203,145.240691 193.195505,135.271345 181,135.005446 L181,135 L45,135 L45,180 L181,180 L181,179.994554 Z" id="Combined-Shape-Copy-15" fill="#CBE6EA" transform="translate(124.000000, 157.500000) rotate(-180.000000) translate(-124.000000, -157.500000) "></path>
                <path d="M290,179.994554 C302.195505,179.728655 312,169.759309 312,157.5 C312,145.240691 302.195505,135.271345 290,135.005446 L290,135 L179,135 L179,180 L290,180 L290,179.994554 Z" id="Combined-Shape-Copy-15" fill="#116E73" transform="translate(245.500000, 157.500000) rotate(-180.000000) translate(-245.500000, -157.500000) "></path>
                <path d="M243.988281,89.9945542 C256.183787,89.7286546 265.988281,79.7593085 265.988281,67.5 C265.988281,55.2406915 256.183787,45.2713454 243.988281,45.0054458 L243.988281,45 L201,45 L201,90 L243.988281,90 L243.988281,89.9945542 Z" id="Combined-Shape-Copy-12" fill="#1DC9B7"></path>
                <path d="M199.988281,89.9945542 C212.183787,89.7286546 221.988281,79.7593085 221.988281,67.5 C221.988281,55.2406915 212.183787,45.2713454 199.988281,45.0054458 L199.988281,45 L157,45 L157,90 L199.988281,90 L199.988281,89.9945542 Z" id="Combined-Shape-Copy-12" fill="#E1F4F3"></path>
                <path d="M142.230469,89.9945542 C154.425974,89.7286546 164.230469,79.7593085 164.230469,67.5 C164.230469,55.2406915 154.425974,45.2713454 142.230469,45.0054458 L142.230469,45 L44,45 L44,90 L142.230469,90 L142.230469,89.9945542 Z" id="Combined-Shape-Copy-13" fill="#E1F4F3" transform="translate(104.115234, 67.500000) rotate(-180.000000) translate(-104.115234, -67.500000) "></path>
                <ellipse id="Oval-114-Copy-16" fill="#12B5A7" transform="translate(178.500000, 22.500000) rotate(-180.000000) translate(-178.500000, -22.500000) " cx="178.5" cy="22.5" rx="22.5" ry="22.5"></ellipse>
                <circle id="Oval-114-Copy-15" fill="#7CDBCF" transform="translate(66.500000, 67.500000) rotate(-180.000000) translate(-66.500000, -67.500000) " cx="66.5" cy="67.5" r="22.5"></circle>
                <circle id="Oval-114-Copy-17" fill="#1DC9B7" transform="translate(156.500000, 112.500000) rotate(-180.000000) translate(-156.500000, -112.500000) " cx="156.5" cy="112.5" r="22.5"></circle>
                <circle id="Oval-114-Copy-18" fill="#87BCC2" transform="translate(200.500000, 157.500000) rotate(-180.000000) translate(-200.500000, -157.500000) " cx="200.5" cy="157.5" r="22.5"></circle>
                <circle id="Oval-114-Copy-19" fill="#7FCBD6" transform="translate(22.500000, 157.500000) rotate(-180.000000) translate(-22.500000, -157.500000) " cx="22.5" cy="157.5" r="22.5"></circle>
            </g>
        </g>
    </g>
</svg>