<?xml version="1.0" encoding="UTF-8" standalone="no"?>
<svg width="86px" height="86px" viewBox="0 0 86 86" version="1.1" xmlns="http://www.w3.org/2000/svg" xmlns:xlink="http://www.w3.org/1999/xlink">
    <!-- Generator: Sketch 3.6 (26304) - http://www.bohemiancoding.com/sketch -->
    <title>Group 18</title>
    <desc>Created with Sketch.</desc>
    <defs></defs>
    <g id="Page-1" stroke="none" stroke-width="1" fill="none" fill-rule="evenodd">
        <g id="Desktop-HD-Copy" transform="translate(-391.000000, -5654.000000)">
            <g id="Group-18" transform="translate(391.000000, 5654.000000)">
                <path d="M86,43 C86,66.748 66.748,86 43,86 C19.252,86 0,66.748 0,43 C0,19.252 19.252,0 43,0 C66.748,0 86,19.252 86,43" id="Fill-1" fill="#FFFFFF"></path>
                <path d="M34.714,46.116 C35.572,46.116 36.289,46.542 36.907,47.384 C37.522,48.232 37.848,49.266 37.848,50.505 C37.848,51.738 37.522,52.781 36.907,53.62 C36.292,54.469 35.572,54.888 34.714,54.888 C33.821,54.888 33.043,54.469 32.422,53.62 C31.807,52.781 31.481,51.738 31.481,50.505 C31.481,49.266 31.807,48.232 32.422,47.384 C33.04,46.539 33.818,46.116 34.714,46.116 M42.506,59.757 C47.91,59.757 51.964,59.111 54.739,57.814 C57.476,56.521 58.875,53.851 58.875,49.823 C58.875,47.486 58.001,45.533 56.244,43.971 C55.354,43.129 54.281,42.61 53.078,42.415 C51.877,42.22 50.039,42.22 47.571,42.415 C45.109,42.614 43.416,42.703 42.506,42.703 C41.274,42.703 39.945,42.646 38.284,42.514 C36.619,42.386 35.313,42.306 34.368,42.265 C33.427,42.236 32.419,42.351 31.301,42.61 C30.197,42.873 29.288,43.328 28.57,43.971 C26.902,45.473 26.041,47.419 26.041,49.823 C26.041,53.851 27.405,56.521 30.139,57.814 C32.86,59.111 36.904,59.757 42.311,59.757 L42.506,59.757 M61.219,34.722 C63.607,37.318 64.821,40.469 64.821,44.176 C64.821,46.571 64.545,48.732 63.991,50.652 C63.431,52.564 62.73,54.123 61.898,55.323 C61.052,56.527 60.015,57.58 58.779,58.49 C57.544,59.405 56.407,60.065 55.37,60.484 C54.329,60.907 53.145,61.23 51.813,61.464 C50.478,61.691 49.489,61.819 48.794,61.858 C48.112,61.886 47.392,61.902 46.601,61.902 C46.425,61.902 45.823,61.915 44.85,61.95 C43.886,61.992 43.057,62.002 42.41,62.002 C41.764,62.002 40.934,61.992 39.971,61.95 C38.998,61.915 38.396,61.902 38.22,61.902 C37.432,61.902 36.709,61.886 36.027,61.858 C35.329,61.819 34.343,61.691 33.008,61.464 C31.653,61.233 30.491,60.907 29.451,60.484 C28.414,60.065 27.274,59.405 26.044,58.49 C24.805,57.58 23.768,56.527 22.923,55.323 C22.087,54.123 21.389,52.564 20.829,50.652 C20.275,48.732 20,46.571 20,44.176 C20,40.469 21.213,37.315 23.602,34.722 C23.339,34.591 23.33,33.291 23.576,30.826 C23.778,28.357 24.303,26.081 25.161,24 C28.151,24.317 31.852,26.014 36.273,29.062 C37.765,28.681 39.798,28.476 42.41,28.476 C45.138,28.476 47.184,28.681 48.551,29.065 C50.564,27.704 52.489,26.597 54.329,25.755 C56.199,24.919 57.547,24.423 58.392,24.292 L59.66,24.003 C60.524,26.081 61.049,28.357 61.248,30.829 C61.491,33.291 61.481,34.591 61.219,34.722 M50.206,46.116 C51.067,46.116 51.781,46.542 52.402,47.384 C53.017,48.232 53.343,49.266 53.343,50.505 C53.343,51.738 53.017,52.781 52.402,53.62 C51.784,54.469 51.067,54.888 50.206,54.888 C49.316,54.888 48.535,54.469 47.917,53.62 C47.302,52.781 46.976,51.738 46.976,50.505 C46.976,49.266 47.302,48.232 47.917,47.384 C48.532,46.539 49.313,46.116 50.206,46.116" id="Fill-3" fill="#155160"></path>
            </g>
        </g>
    </g>
</svg>