<?xml version="1.0" encoding="UTF-8" standalone="no"?>
<svg width="258px" height="258px" viewBox="0 0 258 258" version="1.1" xmlns="http://www.w3.org/2000/svg" xmlns:xlink="http://www.w3.org/1999/xlink">
    <!-- Generator: Sketch 3.6 (26304) - http://www.bohemiancoding.com/sketch -->
    <title>Group 19</title>
    <desc>Created with Sketch.</desc>
    <defs>
        <path id="path-1" d="M129,258 C200.244733,258 258,200.244733 258,129 C258,57.7552673 200.244733,0 129,0 C57.7552673,0 0,57.7552673 0,129 C0,200.244733 57.7552673,258 129,258 Z"></path>
    </defs>
    <g id="Page-1" stroke="none" stroke-width="1" fill="none" fill-rule="evenodd">
        <g id="Desktop-HD-Copy" transform="translate(-346.000000, -1176.000000)">
            <g id="Group-19" transform="translate(346.000000, 1176.000000)">
                <g id="Group-30">
                    <mask id="mask-2" fill="white">
                        <use xlink:href="#path-1"></use>
                    </mask>
                    <use id="Mask" fill="#F6F8F9" xlink:href="#path-1"></use>
                    <g id="Group-29" opacity="0.600000024" mask="url(#mask-2)" fill="#34BCCE">
                        <g transform="translate(65.169811, 68.235849)">
                            <path d="M63.5671893,116.413423 C34.3466421,116.413423 10.6603774,92.7393012 10.6603774,63.5369002 C10.6603774,34.3344991 34.3466421,10.6603774 63.5671893,10.6603774 C92.7865311,10.6603774 116.472599,34.334696 116.472599,63.5369002 C116.472599,92.7391043 92.7865311,116.413423 63.5671893,116.413423 L63.5671893,116.413423 L63.5671893,116.413423 Z M63.5671893,127.0738 C98.6729113,127.0738 127.132976,98.6278525 127.132976,63.5369002 C127.132976,28.4459478 98.6729113,0 63.5671893,0 C28.4603016,0 0,28.4457112 0,63.5369002 C0,98.6280891 28.4603016,127.0738 63.5671893,127.0738 L63.5671893,127.0738 L63.5671893,127.0738 Z" id="Stroke-1"></path>
                            <path d="M87.8937498,63.5369002 C87.8937498,93.1214975 76.0669842,116.413423 63.668573,116.413423 C51.2701619,116.413423 39.4433962,93.1214975 39.4433962,63.5369002 C39.4433962,33.9523028 51.2701619,10.6603774 63.668573,10.6603774 C76.0669842,10.6603774 87.8937498,33.9523028 87.8937498,63.5369002 L87.8937498,63.5369002 L87.8937498,63.5369002 Z M98.5541272,63.5369002 C98.5541272,28.8279829 83.9163593,0 63.668573,0 C43.4207867,0 28.7830189,28.8279829 28.7830189,63.5369002 C28.7830189,98.2458174 43.4207867,127.0738 63.668573,127.0738 C83.9163593,127.0738 98.5541272,98.2458174 98.5541272,63.5369002 L98.5541272,63.5369002 L98.5541272,63.5369002 Z" id="Stroke-3"></path>
                            <path d="M57.5660377,6.39622642 L57.5660377,119.938843 C57.5660377,122.882625 59.9524445,125.269032 62.8962264,125.269032 C65.8400083,125.269032 68.2264151,122.882625 68.2264151,119.938843 L68.2264151,6.39622642 C68.2264151,3.45244449 65.8400083,1.06603774 62.8962264,1.06603774 C59.9524445,1.06603774 57.5660377,3.45244449 57.5660377,6.39622642 L57.5660377,6.39622642 Z" id="Stroke-5"></path>
                        </g>
                    </g>
                    <g id="Group-7" mask="url(#mask-2)" fill="#00CAB1" opacity="0.600000024">
                        <g transform="translate(35.320755, 95.952830)">
                            <path d="M182.445823,27.5378151 L5.33018868,27.5378151 C2.38640676,27.5378151 0,29.9242219 0,32.8680038 C0,35.8117857 2.38640676,38.1981925 5.33018868,38.1981925 L182.445823,38.1981925 C185.389605,38.1981925 187.776012,35.8117857 187.776012,32.8680038 C187.776012,29.9242219 185.389605,27.5378151 182.445823,27.5378151 L182.445823,27.5378151 Z" id="Stroke-7"></path>
                            <path d="M165.926052,0 L21.4730458,0 C18.5292639,0 16.1428571,2.38640676 16.1428571,5.33018868 C16.1428571,8.2739706 18.5292639,10.6603774 21.4730458,10.6603774 L165.926052,10.6603774 C168.869834,10.6603774 171.25624,8.2739706 171.25624,5.33018868 C171.25624,2.38640676 168.869834,0 165.926052,0 L165.926052,0 Z" id="Stroke-9"></path>
                            <path d="M165.926052,56.9747899 L21.4730458,56.9747899 C18.5292639,56.9747899 16.1428571,59.3611967 16.1428571,62.3049786 C16.1428571,65.2487605 18.5292639,67.6351673 21.4730458,67.6351673 L165.926052,67.6351673 C168.869834,67.6351673 171.25624,65.2487605 171.25624,62.3049786 C171.25624,59.3611967 168.869834,56.9747899 165.926052,56.9747899 L165.926052,56.9747899 Z" id="Stroke-11"></path>
                        </g>
                    </g>
                    <ellipse id="Oval-14-Copy" fill="#2FACBD" mask="url(#mask-2)" cx="70.141668" cy="128.63271" rx="5.69747899" ry="5.69747899"></ellipse>
                    <ellipse id="Oval-14-Copy" fill="#2FACBD" mask="url(#mask-2)" cx="103.49342" cy="101.094895" rx="5.69747899" ry="5.69747899"></ellipse>
                    <ellipse id="Oval-14-Copy" fill="#2FACBD" mask="url(#mask-2)" cx="155.603853" cy="158.069684" rx="5.69747899" ry="5.69747899"></ellipse>
                </g>
            </g>
        </g>
    </g>
</svg>