<?xml version="1.0" encoding="UTF-8" standalone="no"?>
<svg width="86px" height="86px" viewBox="0 0 86 86" version="1.1" xmlns="http://www.w3.org/2000/svg" xmlns:xlink="http://www.w3.org/1999/xlink">
    <!-- Generator: Sketch 3.6 (26304) - http://www.bohemiancoding.com/sketch -->
    <title>Group 34</title>
    <desc>Created with Sketch.</desc>
    <defs></defs>
    <g id="Page-1" stroke="none" stroke-width="1" fill="none" fill-rule="evenodd">
        <g id="Desktop-HD-Copy" transform="translate(-507.000000, -5824.000000)">
            <g id="Group-34" transform="translate(507.000000, 5824.000000)">
                <g id="Group-20-Copy-2">
                    <g id="Page-1-Copy-3" fill="#FFFFFF">
                        <path d="M43,86 C19.252,86 0,66.748 0,43 C0,19.252 19.252,0 43,0 C66.748,0 86,19.252 86,43 C86,66.748 66.748,86 43,86 Z" id="Fill-1"></path>
                    </g>
                    <g id="Page-1" transform="translate(48.512821, 40.794872)"></g>
                </g>
                <g id="Group-22" transform="translate(24.000000, 33.000000)" fill="#155160">
                    <path d="M32.1292993,4.85103949 L32.1292993,9.70353436 L27.1832301,9.70353436 L27.1832301,13.3407831 L32.1292993,13.3407831 L32.1292993,18.1920651 L35.837924,18.1920651 L35.837924,13.3407831 L40.782757,13.3407831 L40.782757,9.70353436 L35.837924,9.70353436 L35.837924,4.85103949 L32.1292993,4.85103949 Z" id="Fill-1"></path>
                    <path d="M12.3497203,14.4325641 L12.3497203,9.92087179 L23.9206294,9.92087179 C24.0936985,10.6849487 24.2296814,11.4005128 24.2296814,12.4071538 C24.2296814,19.332359 19.4950039,24.2564103 12.3620824,24.2564103 C5.5382129,24.2564103 0,18.8229744 0,12.1282051 C0,5.4334359 5.5382129,0 12.3620824,0 C15.6998446,0 18.4936752,1.20069231 20.6323155,3.16546154 L17.1214841,6.51284615 C16.2314141,5.68812821 14.6737918,4.71787179 12.3620824,4.71787179 C8.2702331,4.71787179 4.93247086,8.05312821 4.93247086,12.1403333 C4.93247086,16.2275385 8.2702331,19.5627949 12.3620824,19.5627949 C17.0967599,19.5627949 18.8398135,16.3488205 19.1612277,14.4446923 L12.3497203,14.4446923 L12.3497203,14.4325641 Z" id="Fill-2"></path>
                </g>
            </g>
        </g>
    </g>
</svg>