<?xml version="1.0" encoding="UTF-8" standalone="no"?>
<svg width="145px" height="39px" viewBox="0 0 145 39" version="1.1" xmlns="http://www.w3.org/2000/svg" xmlns:xlink="http://www.w3.org/1999/xlink">
    <!-- Generator: Sketch 3.7.2 (28276) - http://www.bohemiancoding.com/sketch -->
    <title>Group</title>
    <desc>Created with Sketch.</desc>
    <defs>
        <polygon id="path-1" points="75.9425 28.0376299 75.9425 0.137693729 0.0245833333 0.137693729 0.0245833333 28.0376299 75.9425 28.0376299"></polygon>
    </defs>
    <g id="Page-1" stroke="none" stroke-width="1" fill="none" fill-rule="evenodd">
        <g id="Desktop-HD-Copy-3" transform="translate(-393.000000, -183.000000)">
            <g id="Group" transform="translate(393.000000, 183.000000)">
                <g id="Page-1">
                    <path d="M7.37633333,19.3488128 C7.37633333,18.4559617 8.1005,17.7323872 8.993,17.7323872 C9.88633333,17.7323872 10.6105,18.4559617 10.6105,19.3488128 C10.6105,24.2951745 14.5446667,28.3196426 19.3813333,28.3196426 C24.2171667,28.3196426 28.1521667,24.2951745 28.1521667,19.3488128 C28.1521667,18.4559617 28.8763333,17.7323872 29.7688333,17.7323872 C30.6621667,17.7323872 31.3863333,18.4559617 31.3863333,19.3488128 C31.3863333,26.0775574 26.0005,31.5516638 19.3813333,31.5516638 C12.7613333,31.5516638 7.37633333,26.0775574 7.37633333,19.3488128" id="Fill-1" fill="#00D2BA"></path>
                    <path d="M35.5656667,19.6236383 C35.5656667,10.7183617 28.3673333,3.47348936 19.519,3.47348936 C10.6706667,3.47348936 3.4715,10.7183617 3.4715,19.6236383 L0.0206666667,19.6236383 C0.0206666667,8.80321277 8.76733333,0 19.519,0 C30.2698333,0 39.0165,8.80321277 39.0165,19.6236383 L35.5656667,19.6236383 Z" id="Fill-3" fill="#00D2BA"></path>
                    <path d="M19.5203333,38.9724511 C8.7695,38.9724511 0.022,30.1692383 0.022,19.3488128 L3.47366667,19.3488128 C3.47366667,28.2540894 10.672,35.4989617 19.5203333,35.4989617 C28.3686667,35.4989617 35.567,28.2540894 35.567,19.3488128 L39.0178333,19.3488128 C39.0178333,30.1692383 30.272,38.9724511 19.5203333,38.9724511" id="Fill-5" fill="#00AD9B"></path>
                    <path d="M1.80533333,17.7250021 C2.802,17.7250021 3.61033333,18.5381936 3.61033333,19.5422362 C3.61033333,20.5454489 2.802,21.3586404 1.80533333,21.3586404 C0.808666667,21.3586404 0.000333333333,20.5454489 0.000333333333,19.5422362 C0.000333333333,18.5381936 0.808666667,17.7250021 1.80533333,17.7250021" id="Fill-7" fill="#00716A"></path>
                    <path d="M37.1904167,21.3589723 C38.1870833,21.3589723 38.9954167,20.5457809 38.9954167,19.5417383 C38.9954167,18.5385255 38.1870833,17.725334 37.1904167,17.725334 C36.19375,17.725334 35.3854167,18.5385255 35.3854167,19.5417383 C35.3854167,20.5457809 36.19375,21.3589723 37.1904167,21.3589723" id="Fill-9" fill="#00716A"></path>
                    <g id="Group-13" transform="translate(68.333333, 8.124747)">
                        <mask id="mask-2" fill="white">
                            <use xlink:href="#path-1"></use>
                        </mask>
                        <g id="Clip-12"></g>
                        <path d="M74.19875,6.55111926 C74.6720833,6.55111926 75.08125,6.71707671 75.42625,7.04816181 C75.7704167,7.37924692 75.9429167,7.78003415 75.9429167,8.25052352 L75.9429167,20.3728852 C75.9429167,22.5104171 75.1945833,24.3226725 73.6979167,25.8088214 C72.2020833,27.2941405 70.3770833,28.0376299 68.2245833,28.0376299 C67.0829167,28.0376299 65.9745833,27.7704384 64.8979167,27.2352256 C64.4454167,27.0435448 64.1445833,26.7282256 63.99375,26.2892682 C63.8429167,25.8511405 63.8645833,25.4080342 64.0579167,24.9582895 C64.27375,24.574098 64.6129167,24.3069065 65.0754167,24.156715 C65.5379167,24.0073533 66.0279167,24.0604597 66.5445833,24.3176937 C67.06125,24.574098 67.7070833,24.6969065 68.4829167,24.6861193 C69.2579167,24.675332 70.01625,24.3973533 70.7595833,23.8521831 C71.5020833,23.3070129 72.0029167,22.6174597 72.26125,21.7835235 C71.3570833,22.2971618 70.33375,22.5535661 69.1929167,22.5535661 C67.34125,22.5535661 65.75375,21.8905661 64.4295833,20.5653959 C63.1054167,19.2393959 62.44375,17.6578214 62.44375,15.8190129 L62.44375,8.25052352 C62.44375,7.78003415 62.6104167,7.37924692 62.94375,7.04816181 C63.2779167,6.71707671 63.68125,6.55111926 64.1545833,6.55111926 C64.62875,6.55111926 65.0270833,6.7112682 65.3495833,7.03239586 C65.6729167,7.35269373 65.8345833,7.75928947 65.8345833,8.25052352 L65.8345833,15.8190129 C65.8345833,16.7384171 66.1629167,17.5134384 66.8195833,18.1440767 C67.47625,18.774715 68.2670833,19.0900342 69.1929167,19.0900342 C70.11875,19.0900342 70.9045833,18.774715 71.5504167,18.1440767 C72.19625,17.5134384 72.5195833,16.7384171 72.5195833,15.8190129 L72.5195833,8.25052352 C72.5195833,7.75928947 72.68125,7.35269373 73.00375,7.03239586 C73.3270833,6.7112682 73.7254167,6.55111926 74.19875,6.55111926 L74.19875,6.55111926 Z M56.2204167,6.79175756 C56.6829167,6.71707671 57.1029167,6.81333203 57.4795833,7.08052352 C57.85625,7.34771501 58.0829167,7.71116181 58.1579167,8.17086394 C58.2329167,8.63056607 58.13125,9.0313533 57.85125,9.37322564 L54.0079167,14.6324171 L57.85125,19.9239703 C58.13125,20.2874171 58.2329167,20.7039703 58.1579167,21.1744597 C58.0829167,21.644949 57.8729167,21.9976086 57.5279167,22.2324384 C57.18375,22.468098 56.8070833,22.5859278 56.3979167,22.5859278 C55.98875,22.5859278 55.5470833,22.3502682 55.07375,21.8797788 L51.8445833,17.4868852 L48.6145833,21.8797788 C48.2054167,22.3502682 47.78625,22.5859278 47.3554167,22.5859278 C46.9245833,22.5859278 46.55875,22.468098 46.2570833,22.2324384 C45.89125,21.9976086 45.6704167,21.6391405 45.5954167,21.1586937 C45.5195833,20.6774171 45.6220833,20.2658427 45.9020833,19.9239703 L49.7770833,14.6324171 L45.9020833,9.37322564 C45.6220833,9.0313533 45.5195833,8.63056607 45.5954167,8.17086394 C45.6704167,7.71116181 45.89625,7.34771501 46.27375,7.08052352 C46.6504167,6.81333203 47.0595833,6.71707671 47.5004167,6.79175756 C47.9420833,6.86643841 48.31375,7.08550224 48.6145833,7.44894905 L51.8445833,11.7464171 L55.07375,7.44894905 C55.3754167,7.08550224 55.7570833,6.86643841 56.2204167,6.79175756 L56.2204167,6.79175756 Z M32.4479167,11.2651405 C31.6729167,12.1629703 31.2854167,13.2748852 31.2854167,14.6000554 C31.2854167,15.9260554 31.6729167,17.058715 32.4479167,17.9996937 C33.2879167,18.790481 34.2995833,19.1862895 35.48375,19.1862895 C36.6679167,19.1862895 37.6804167,18.790481 38.5195833,17.9996937 C39.3595833,17.058715 39.7795833,15.9260554 39.7795833,14.6000554 C39.7795833,13.2748852 39.3595833,12.1629703 38.5195833,11.2651405 C37.59375,10.4527788 36.5820833,10.0470129 35.48375,10.0470129 C34.38625,10.0470129 33.37375,10.4527788 32.4479167,11.2651405 L32.4479167,11.2651405 Z M35.54875,22.6821831 C33.37375,22.6821831 31.5329167,21.8905661 30.02625,20.3089916 C28.51875,18.7265873 27.7654167,16.8346725 27.7654167,14.6324171 C27.7654167,12.4301618 28.5245833,10.5332682 30.0420833,8.94007671 C31.5604167,7.34771501 33.3845833,6.55111926 35.51625,6.55111926 C37.6479167,6.55111926 39.46125,7.35850224 40.9579167,8.97243841 C42.4545833,10.5863746 43.2020833,12.5048427 43.2020833,14.7286725 C43.2020833,16.9525022 42.44875,18.790481 40.9420833,20.2442682 C39.52125,21.8689916 37.7229167,22.6821831 35.54875,22.6821831 L35.54875,22.6821831 Z M20.31875,8.47539586 C20.81375,7.89786394 21.4920833,7.43318309 22.3529167,7.08052352 C23.2145833,6.72786394 24.0004167,6.55609798 24.7104167,6.56688522 C25.42125,6.57767245 25.9429167,6.7436299 26.2770833,7.06392777 C26.6104167,7.38505543 26.7779167,7.77505543 26.7779167,8.23475756 C26.7779167,8.69445969 26.6104167,9.09524692 26.2770833,9.43711926 C25.9429167,9.7789916 25.5395833,9.95075756 25.06625,9.95075756 C23.06375,9.95075756 21.48125,11.5646937 20.31875,14.7925661 L20.31875,20.8856937 C20.31875,21.3561831 20.14625,21.7569703 19.8020833,22.0888852 C19.4570833,22.4199703 19.0429167,22.5859278 18.55875,22.5859278 C18.07375,22.5859278 17.6654167,22.4199703 17.33125,22.0888852 C16.9979167,21.7569703 16.8304167,21.3561831 16.8304167,20.8856937 L16.8304167,8.25052352 C16.8304167,7.78003415 16.9979167,7.38505543 17.33125,7.06392777 C17.6654167,6.7436299 18.07375,6.58348096 18.55875,6.58348096 C19.0429167,6.58348096 19.4570833,6.7436299 19.8020833,7.06392777 C20.14625,7.38505543 20.31875,7.78003415 20.31875,8.25052352 L20.31875,8.47539586 Z M3.60958333,3.69665118 L3.60958333,10.3034171 L7.58208333,10.3034171 C8.50708333,10.3034171 9.29291667,9.98228947 9.93958333,9.34086394 C10.5854167,8.69943841 10.91875,7.93022564 10.9404167,7.03239586 C10.91875,6.09141713 10.5854167,5.3006299 9.93958333,4.65920437 C9.29291667,4.01777884 8.50708333,3.69665118 7.58208333,3.69665118 L3.60958333,3.69665118 Z M12.4904167,2.15739586 C13.8470833,3.50497032 14.5254167,5.12388522 14.5254167,7.01580011 C14.5254167,8.90854479 13.8470833,10.522481 12.4904167,11.8584384 C11.13375,13.1943959 9.49791667,13.8632044 7.58208333,13.8632044 L3.60958333,13.8632044 L3.60958333,20.8218001 C3.60958333,21.3138639 3.43208333,21.7304171 3.07625,22.0722895 C2.72125,22.4141618 2.29625,22.5859278 1.80125,22.5859278 C1.30541667,22.5859278 0.88625,22.4141618 0.54125,22.0722895 C0.197083333,21.7304171 0.0245833333,21.3138639 0.0245833333,20.8218001 L0.0245833333,1.9009916 C0.0245833333,1.40975756 0.197083333,0.99237458 0.54125,0.65050224 C0.88625,0.308629899 1.30541667,0.137693729 1.80125,0.137693729 L7.58208333,0.137693729 C9.49791667,0.137693729 11.13375,0.810651176 12.4904167,2.15739586 L12.4904167,2.15739586 Z" id="Fill-11" fill="#00AD9B" mask="url(#mask-2)"></path>
                    </g>
                    <path d="M63.9163333,24.0400149 C63.9163333,25.8572489 63.2438333,27.4230574 61.898,28.7382702 C60.5521667,30.0526532 58.9588333,30.7106745 57.118,30.7106745 C55.2771667,30.7106745 53.6946667,30.0584617 52.3705,28.7540362 C51.0471667,27.4496106 50.3846667,25.8788234 50.3846667,24.0400149 L50.3846667,16.3752702 C50.3846667,15.9263553 50.5513333,15.5313766 50.8855,15.1886745 C51.2188333,14.8468021 51.623,14.675866 52.0963333,14.675866 C52.5696667,14.675866 52.9738333,14.8468021 53.3071667,15.1886745 C53.6413333,15.5313766 53.808,15.9263553 53.808,16.3752702 L53.808,24.0400149 C53.808,24.9594191 54.1255,25.7344404 54.7605,26.3650787 C55.3955,26.995717 56.1763333,27.3110362 57.1021667,27.3110362 C58.028,27.3110362 58.8188333,26.995717 59.4755,26.3650787 C60.1321667,25.7344404 60.4713333,24.9594191 60.493,24.0400149 L60.493,16.3752702 C60.493,15.9263553 60.6546667,15.5313766 60.9771667,15.1886745 C61.3005,14.8468021 61.693,14.675866 62.1563333,14.675866 C62.6188333,14.675866 63.028,14.8468021 63.3838333,15.1886745 C63.7388333,15.5313766 63.9163333,15.9263553 63.9163333,16.3752702 L63.9163333,24.0400149 Z" id="Fill-14" fill="#00D2BA"></path>
                </g>
            </g>
        </g>
    </g>
</svg>