<?xml version="1.0" encoding="UTF-8" standalone="no"?>
<svg width="143px" height="42px" viewBox="0 0 143 42" version="1.1" xmlns="http://www.w3.org/2000/svg" xmlns:xlink="http://www.w3.org/1999/xlink">
    <!-- Generator: Sketch 3.6 (26304) - http://www.bohemiancoding.com/sketch -->
    <title>Group 31</title>
    <desc>Created with Sketch.</desc>
    <defs></defs>
    <g id="Page-1" stroke="none" stroke-width="1" fill="none" fill-rule="evenodd">
        <g id="Desktop-HD-Copy" transform="translate(-380.000000, -347.000000)" fill="#FFFFFF">
            <g id="Group-31" transform="translate(380.000000, 347.000000)">
                <g id="Logotype" transform="translate(53.000000, 11.000000)">
                    <path d="M28.1509327,1.95517241 C29.4730616,3.25862721 30.1341161,4.82585291 30.1341161,6.65689655 C30.1341161,8.48794017 29.4730616,10.0499935 28.1509327,11.3431034 C26.8288039,12.6362134 25.2338788,13.2827586 23.3661095,13.2827586 L19.4941801,13.2827586 L19.4941801,20.0172414 C19.4941801,20.4931059 19.3210468,20.8965501 18.974775,21.2275862 C18.6285031,21.5586223 18.2140325,21.7241379 17.7313505,21.7241379 C17.2486685,21.7241379 16.8394443,21.5586223 16.5036656,21.2275862 C16.1678869,20.8965501 16,20.4931059 16,20.0172414 L16,1.70689655 C16,1.2310321 16.1678869,0.827587862 16.5036656,0.496551724 C16.8394443,0.165515586 17.2486685,0 17.7313505,0 L23.3661095,0 C25.2338788,0 26.8288039,0.651717621 28.1509327,1.95517241 L28.1509327,1.95517241 L28.1509327,1.95517241 Z M19.4941801,3.44482759 L19.4941801,9.83793103 L23.3661095,9.83793103 C24.2685149,9.83793103 25.0344987,9.52758931 25.6640838,8.90689655 C26.293669,8.28620379 26.6189498,7.54138366 26.6399359,6.67241379 C26.6189498,5.76206441 26.293669,4.99655483 25.6640838,4.37586207 C25.0344987,3.75516931 24.2685149,3.44482759 23.3661095,3.44482759 L19.4941801,3.44482759 L19.4941801,3.44482759 Z M35.7812291,8.06896552 C36.2639111,7.51034203 36.9249655,7.06034653 37.7644124,6.71896552 C38.6038593,6.3775845 39.369843,6.21206891 40.0623867,6.22241379 C40.7549304,6.23275867 41.2638374,6.3931019 41.5891231,6.70344828 C41.9144088,7.01379466 42.0770492,7.39137709 42.0770492,7.8362069 C42.0770492,8.28103672 41.9144088,8.66896388 41.5891231,9 C41.2638374,9.33103612 40.8703526,9.49655172 40.4086568,9.49655172 C38.4569428,9.49655172 36.9144824,11.0586051 35.7812291,14.1827586 L35.7812291,20.0793103 C35.7812291,20.534485 35.6133422,20.9224122 35.2775635,21.2431034 C34.9417847,21.5637947 34.537807,21.7241379 34.0656181,21.7241379 C33.5934292,21.7241379 33.194698,21.5637947 32.8694123,21.2431034 C32.5441266,20.9224122 32.3814862,20.534485 32.3814862,20.0793103 L32.3814862,7.85172414 C32.3814862,7.39654945 32.5441266,7.01379466 32.8694123,6.70344828 C33.194698,6.3931019 33.5934292,6.23793103 34.0656181,6.23793103 C34.537807,6.23793103 34.9417847,6.3931019 35.2775635,6.70344828 C35.6133422,7.01379466 35.7812291,7.39654945 35.7812291,7.85172414 L35.7812291,8.06896552 L35.7812291,8.06896552 Z M50.6264164,21.8172414 C48.5068131,21.8172414 46.7125223,21.0517318 45.2434903,19.5206897 C43.7744583,17.9896475 43.0399533,16.1586314 43.0399533,14.0275862 C43.0399533,11.896541 43.7797047,10.0603525 45.2592298,8.51896552 C46.738755,6.9775785 48.5173063,6.20689655 50.5949373,6.20689655 C52.6725684,6.20689655 54.4406268,6.98792322 55.8991657,8.55 C57.3577047,10.1120768 58.0869632,11.9689547 58.0869632,14.1206897 C58.0869632,16.2724246 57.3524582,18.0517171 55.8834262,19.4586207 C54.4983389,21.0310423 52.7460198,21.8172414 50.6264164,21.8172414 L50.6264164,21.8172414 L50.6264164,21.8172414 Z M47.6044228,10.7689655 C46.8489206,11.6379353 46.4711752,12.7137867 46.4711752,13.9965517 C46.4711752,15.2793167 46.8489206,16.3758575 47.6044228,17.2862069 C48.4228835,18.0517279 49.4092188,18.4344828 50.5634582,18.4344828 C51.7176977,18.4344828 52.704033,18.0517279 53.5224937,17.2862069 C54.3409544,16.3758575 54.7501786,15.2793167 54.7501786,13.9965517 C54.7501786,12.7137867 54.3409544,11.6379353 53.5224937,10.7689655 C52.6200882,9.98275466 51.633753,9.58965517 50.5634582,9.58965517 C49.4931635,9.58965517 48.5068282,9.98275466 47.6044228,10.7689655 L47.6044228,10.7689655 L47.6044228,10.7689655 Z M70.7758322,6.43965517 C71.2270349,6.36724102 71.6362591,6.46034353 72.0035171,6.71896552 C72.3707751,6.9775875 72.5911266,7.32930812 72.6645782,7.77413793 C72.7380298,8.21896776 72.638347,8.60689491 72.3655268,8.93793103 L68.6195138,14.0275862 L72.3655268,19.1482759 C72.638347,19.5000017 72.7380298,19.903446 72.6645782,20.3586207 C72.5911266,20.8137953 72.3865145,21.1551713 72.0507358,21.3827586 C71.714957,21.6103459 71.3477045,21.7241379 70.9489673,21.7241379 C70.55023,21.7241379 70.1200199,21.496554 69.6583241,21.0413793 L66.5104141,16.7896552 L63.3625041,21.0413793 C62.9637668,21.496554 62.5545426,21.7241379 62.1348192,21.7241379 C61.7150957,21.7241379 61.3583362,21.6103459 61.0645297,21.3827586 C60.7077649,21.1551713 60.4926598,20.808623 60.4192082,20.3431034 C60.3457566,19.8775839 60.4454394,19.479312 60.7182596,19.1482759 L64.4957517,14.0275862 L60.7182596,8.93793103 C60.4454394,8.60689491 60.3457566,8.21896776 60.4192082,7.77413793 C60.4926598,7.32930812 60.7130113,6.9775875 61.0802693,6.71896552 C61.4475273,6.46034353 61.8462586,6.36724102 62.2764751,6.43965517 C62.7066917,6.51206933 63.0686977,6.72413617 63.3625041,7.07586207 L66.5104141,11.2344828 L69.6583241,7.07586207 C69.9521306,6.72413617 70.3246295,6.51206933 70.7758322,6.43965517 L70.7758322,6.43965517 L70.7758322,6.43965517 Z M88.3001286,6.20689655 C88.7618247,6.20689655 89.1605556,6.36723978 89.4963344,6.68793103 C89.8321132,7.00862229 90,7.39654945 90,7.85172414 L90,19.5827586 C90,21.6517345 89.2707412,23.4051653 87.8122025,24.8431034 C86.3536639,26.2810416 84.5751122,27 82.476495,27 C81.3642282,27 80.2834563,26.7413819 79.2341477,26.2241379 C78.7934377,26.0379301 78.4996362,25.7327608 78.3527329,25.3086207 C78.2058295,24.8844806 78.2268156,24.4551746 78.4156911,24.0206897 C78.6255526,23.648274 78.9560797,23.3896559 79.4072827,23.2448276 C79.8584858,23.0999993 80.3359136,23.1517229 80.8395818,23.4 C81.34325,23.6482771 81.9728259,23.7672415 82.7283278,23.7568966 C83.4838297,23.7465516 84.2235816,23.4775889 84.9476044,22.95 C85.6716272,22.4224111 86.1595489,21.7551765 86.4113826,20.9482759 C85.5299634,21.4448301 84.5331348,21.6931034 83.420868,21.6931034 C81.6160575,21.6931034 80.06835,21.0517305 78.7777007,19.7689655 C77.4870515,18.4862005 76.8417361,16.9551813 76.8417361,15.1758621 L76.8417361,7.85172414 C76.8417361,7.39654945 77.0043763,7.00862229 77.3296621,6.68793103 C77.6549479,6.36723978 78.0484323,6.20689655 78.5101284,6.20689655 C78.9718245,6.20689655 79.3600623,6.36206741 79.6748551,6.67241379 C79.9896478,6.98276017 80.1470416,7.37585969 80.1470416,7.85172414 L80.1470416,15.1758621 C80.1470416,16.0655217 80.4670756,16.8155142 81.1071542,17.4258621 C81.7472327,18.0362099 82.5184628,18.3413793 83.420868,18.3413793 C84.3232733,18.3413793 85.0892568,18.0362099 85.7188424,17.4258621 C86.3484279,16.8155142 86.6632154,16.0655217 86.6632154,15.1758621 L86.6632154,7.85172414 C86.6632154,7.37585969 86.8206091,6.98276017 87.1354019,6.67241379 C87.4501946,6.36206741 87.8384325,6.20689655 88.3001286,6.20689655 L88.3001286,6.20689655 L88.3001286,6.20689655 Z" id="uProxy"></path>
                    <path d="M14,15.76 C14,17.4600085 13.3039051,18.9249938 11.9116945,20.155 C10.5194839,21.3850062 8.8711312,22 6.96658709,22 C5.06204297,22 3.42482784,21.3900061 2.05489259,20.17 C0.684957345,18.9499939 0,17.4800086 0,15.76 L0,8.59 C0,8.1699979 0.172631523,7.8000016 0.517899756,7.48 C0.863167989,7.1599984 1.28082491,7 1.77088305,7 C2.26094118,7 2.6785981,7.1599984 3.02386634,7.48 C3.36913457,7.8000016 3.5417661,8.1699979 3.5417661,8.59 L3.5417661,15.76 C3.5417661,16.6200043 3.87032287,17.3449971 4.52744629,17.935 C5.1845697,18.5250029 5.99203974,18.82 6.94988065,18.82 C7.90772155,18.82 8.72632912,18.5250029 9.40572793,17.935 C10.0851267,17.3449971 10.4359585,16.6200043 10.4582339,15.76 L10.4582339,8.59 C10.4582339,8.1699979 10.6252967,7.8000016 10.9594272,7.48 C11.2935578,7.1599984 11.7000771,7 12.1789976,7 C12.657918,7 13.0811437,7.1599984 13.4486874,7.48 C13.8162309,7.8000016 14,8.1699979 14,8.59 L14,15.76 L14,15.76 Z" id="Path" fill-opacity="0.800000012"></path>
                </g>
                <g id="Logo">
                    <g id="Group-2">
                        <path d="M7.88316185,20.7926336 C7.88316185,19.8346664 8.65695837,19.0581463 9.61119767,19.0581463 C10.565437,19.0581463 11.3392336,19.8346664 11.3392336,20.7926336 C11.3392336,26.1015267 15.5442415,30.4205589 20.7128731,30.4205589 C25.8815047,30.4205589 30.0865127,26.1015267 30.0865127,20.7926336 C30.0865127,19.8346664 30.8603092,19.0581463 31.8145485,19.0581463 C32.7687878,19.0581463 33.5425843,19.8346664 33.5425843,20.7926336 C33.5425843,28.014156 27.7871845,33.8893684 20.7128731,33.8893684 C13.6385617,33.8893684 7.88316185,28.014156 7.88316185,20.7926336 L7.88316185,20.7926336 Z" id="Fill-1"></path>
                        <path d="M38.0092878,21.0876307 C38.0092878,11.5297552 30.316221,3.75379962 20.8598591,3.75379962 C11.4036631,3.75379962 3.7104305,11.5297552 3.7104305,21.0876307 L0.0223349713,21.0876307 C0.0223349713,9.47397732 9.37008683,0.0260471503 20.8598591,0.0260471503 C32.3496315,0.0260471503 41.6973833,9.47414488 41.6973833,21.0876307 L38.0092878,21.0876307 L38.0092878,21.0876307 Z" id="Fill-2" fill-opacity="0.5"></path>
                        <path d="M20.8614934,41.8542172 C9.37167542,41.8542172 0.0238863656,32.4059518 0.0238863656,20.7926336 L3.71199657,20.7926336 C3.71199657,30.3505091 11.405094,38.1264647 20.8614934,38.1264647 C30.3177271,38.1264647 38.0109903,30.3505091 38.0109903,20.7926336 L41.6989347,20.7926336 C41.6989347,32.4059518 32.3514773,41.8542172 20.8614934,41.8542172" id="Fill-3" fill-opacity="0.799999952"></path>
                        <ellipse id="Oval-1" cx="1.86666667" cy="21.0634083" rx="1.86666667" ry="1.88673835"></ellipse>
                        <path d="M41.6750484,20.5333333 C41.6750484,19.5024018 40.848204,18.6666667 39.8282398,18.6666667 C38.8082757,18.6666667 37.9814313,19.5024018 37.9814313,20.5333333 C37.9814313,21.5642649 38.8082757,22.4 39.8282398,22.4 C40.848204,22.4 41.6750484,21.5642649 41.6750484,20.5333333 Z" id="Oval-1-Copy"></path>
                    </g>
                </g>
            </g>
        </g>
    </g>
</svg>