<?xml version="1.0" encoding="UTF-8" standalone="no"?>
<svg width="258px" height="258px" viewBox="0 0 258 258" version="1.1" xmlns="http://www.w3.org/2000/svg" xmlns:xlink="http://www.w3.org/1999/xlink">
    <!-- Generator: Sketch 3.6 (26304) - http://www.bohemiancoding.com/sketch -->
    <title>Group 32</title>
    <desc>Created with Sketch.</desc>
    <defs>
        <path id="path-1" d="M129,258 C200.244733,258 258,200.244733 258,129 C258,57.7552673 200.244733,0 129,0 C57.7552673,0 0,57.7552673 0,129 C0,200.244733 57.7552673,258 129,258 Z"></path>
    </defs>
    <g id="Page-1" stroke="none" stroke-width="1" fill="none" fill-rule="evenodd">
        <g id="Desktop-HD-Copy" transform="translate(-730.000000, -1403.000000)">
            <g id="Group-32" transform="translate(730.000000, 1403.000000)">
                <mask id="mask-2" fill="white">
                    <use xlink:href="#path-1"></use>
                </mask>
                <use id="Mask" fill="#F6F8F9" xlink:href="#path-1"></use>
                <path d="M141.650013,77.7429575 C141.650013,84.698111 135.990082,90.3433966 129.001098,90.3433966 C122.012114,90.3433966 116.352183,84.698111 116.352183,77.7429575 C116.352183,70.7878041 122.012114,65.1425185 129.001098,65.1425185 C135.990082,65.1425185 141.650013,70.7878041 141.650013,77.7429575 L141.650013,77.7429575 Z M153.819824,77.7429575 C153.819824,64.0595342 142.704234,52.9727072 129.001098,52.9727072 C115.297961,52.9727072 104.182371,64.0595342 104.182371,77.7429575 C104.182371,91.4263809 115.297961,102.513208 129.001098,102.513208 C142.704234,102.513208 153.819824,91.4263809 153.819824,77.7429575 L153.819824,77.7429575 Z" id="Stroke-1" fill="#00CAB1" opacity="0.6" mask="url(#mask-2)"></path>
                <path d="M168.767183,160.460846 C168.767183,166.955305 151.595537,173.232566 129.000625,173.232566 C106.405714,173.232566 89.2340672,166.955305 89.2340672,160.460846 C89.2340672,138.640622 107.076728,120.81372 129.001413,120.81372 C150.924735,120.81372 168.767183,138.640833 168.767183,160.460846 L168.767183,160.460846 Z M180.936995,160.460846 C180.936995,131.917288 157.643595,108.643909 129.001413,108.643909 C100.357933,108.643909 77.0642559,131.917013 77.0642559,160.460846 C77.0642559,177.013374 100.01264,185.402378 129.000625,185.402378 C157.98861,185.402378 180.936995,177.013374 180.936995,160.460846 L180.936995,160.460846 Z" id="Stroke-3" fill="#00CAB1" opacity="0.6" mask="url(#mask-2)"></path>
                <ellipse id="Oval-14-Copy" fill="#2FACBD" mask="url(#mask-2)" cx="84.1557793" cy="164.507214" rx="6.50420168" ry="6.50420168"></ellipse>
                <ellipse id="Oval-14-Copy" fill="#2FACBD" mask="url(#mask-2)" cx="174.130569" cy="164.507214" rx="6.50420168" ry="6.50420168"></ellipse>
                <g id="Group-5" opacity="0.6" mask="url(#mask-2)" fill="#34BCCE">
                    <g transform="translate(107.094340, 133.867925)">
                        <path d="M15.4219122,14.8058947 L15.4219122,67.9235418 C15.4219122,71.2841424 18.1462172,74.0084474 21.5068178,74.0084474 C24.8674184,74.0084474 27.5917235,71.2841424 27.5917235,67.9235418 L27.5917235,14.8058947 C27.5917235,11.4452941 24.8674184,8.72098906 21.5068178,8.72098906 C18.1462172,8.72098906 15.4219122,11.4452941 15.4219122,14.8058947 L15.4219122,14.8058947 Z" id="Stroke-1"></path>
                        <path d="M11.1750421,25.4985173 L26.1227816,10.5507778 L17.5172695,10.5506218 L32.4639249,25.4983613 C34.8401422,27.8747509 38.6928914,27.8748906 41.069281,25.4986733 C43.4456707,23.122456 43.4458104,19.2697069 41.0695931,16.8933172 L26.1229376,1.94557773 C23.7466594,-0.430872841 19.8937899,-0.430942698 17.5174255,1.94542171 L2.56968598,16.8931612 C0.193382511,19.2694647 0.193382511,23.1222138 2.56968598,25.4985173 C4.94598946,27.8748208 8.79873862,27.8748208 11.1750421,25.4985173 L11.1750421,25.4985173 Z" id="Stroke-3"></path>
                    </g>
                </g>
            </g>
        </g>
    </g>
</svg>