<?xml version="1.0" encoding="UTF-8" standalone="no"?>
<svg width="86px" height="86px" viewBox="0 0 86 86" version="1.1" xmlns="http://www.w3.org/2000/svg" xmlns:xlink="http://www.w3.org/1999/xlink">
    <!-- Generator: Sketch 3.6 (26304) - http://www.bohemiancoding.com/sketch -->
    <title>Group 21</title>
    <desc>Created with Sketch.</desc>
    <defs></defs>
    <g id="Page-1" stroke="none" stroke-width="1" fill="none" fill-rule="evenodd">
        <g id="Desktop-HD-Copy" transform="translate(-623.000000, -5654.000000)">
            <g id="Group-21" transform="translate(623.000000, 5654.000000)">
                <g id="Page-1-Copy-2" fill="#FFFFFF">
                    <path d="M86,43 C86,66.748 66.748,86 43,86 C19.252,86 0,66.748 0,43 C0,19.252 19.252,0 43,0 C66.748,0 86,19.252 86,43" id="Fill-1"></path>
                </g>
                <g id="Page-1" transform="translate(24.000000, 29.000000)" fill="#155160">
                    <path d="M40.2226943,3.80356211 C38.7427548,4.44870673 37.1524708,4.88487713 35.4830331,5.08083565 C37.1868983,4.07703632 38.4954361,2.48724148 39.1114523,0.59316861 C37.5170488,1.52277848 35.7510965,2.19771457 33.8712687,2.56157556 C32.3660235,0.98508565 30.2213691,-5.78475328e-05 27.8479339,-5.78475328e-05 C23.2902673,-5.78475328e-05 19.5954943,3.63189955 19.5954943,8.11132332 C19.5954943,8.74721233 19.6684688,9.36618094 19.8091211,9.95984126 C12.9508467,9.6215778 6.87027988,6.39223924 2.80018864,1.48474372 C2.08986474,2.68276614 1.68291446,4.07616861 1.68291446,5.56270561 C1.68291446,8.3768435 3.13975525,10.8596596 5.35400023,12.3143805 C4.00132459,12.2722964 2.72883257,11.9072785 1.61626642,11.2997348 C1.61567792,11.3335756 1.61553079,11.367561 1.61553079,11.401691 C1.61553079,15.3318525 4.46006318,18.6103614 8.23516697,19.3555823 C7.5426453,19.540839 6.81363641,19.6399029 6.06108736,19.6399029 C5.52922719,19.6399029 5.01237386,19.5891417 4.50846761,19.4944164 C5.55865237,22.7171025 8.60621852,25.0622415 12.2172769,25.1278984 C9.39290078,27.3033996 5.83480771,28.600052 1.96848586,28.600052 C1.30244685,28.600052 0.645529653,28.561728 -5.88503649e-05,28.4868155 C3.65204767,30.7882796 7.98961382,32.1310655 12.6498271,32.1310655 C27.8286604,32.1310655 36.1289158,19.7710722 36.1289158,9.05192422 C36.1289158,8.70021121 36.1208239,8.35037825 36.1050814,8.00256996 C37.7172872,6.85892422 39.1163075,5.43023475 40.2226943,3.80356211" id="Fill-1"></path>
                </g>
            </g>
        </g>
    </g>
</svg>