<?xml version="1.0" encoding="UTF-8" standalone="no"?>
<svg width="57px" height="58px" viewBox="0 0 57 58" version="1.1" xmlns="http://www.w3.org/2000/svg" xmlns:xlink="http://www.w3.org/1999/xlink">
    <!-- Generator: Sketch 3.6 (26304) - http://www.bohemiancoding.com/sketch -->
    <title>Logo</title>
    <desc>Created with Sketch.</desc>
    <defs></defs>
    <g id="Page-1" stroke="none" stroke-width="1" fill="none" fill-rule="evenodd">
        <g id="Logo">
            <g id="Group-2">
                <path d="M10.6985768,28.7136368 C10.6985768,27.3907298 11.7487292,26.3183924 13.0437683,26.3183924 C14.3388073,26.3183924 15.3889598,27.3907298 15.3889598,28.7136368 C15.3889598,36.0449655 21.0957563,42.0093432 28.1103278,42.0093432 C35.1248992,42.0093432 40.8316957,36.0449655 40.8316957,28.7136368 C40.8316957,27.3907298 41.8818482,26.3183924 43.1768872,26.3183924 C44.4719262,26.3183924 45.5220787,27.3907298 45.5220787,28.7136368 C45.5220787,38.6862154 37.7111789,46.799604 28.1103278,46.799604 C18.5094766,46.799604 10.6985768,38.6862154 10.6985768,28.7136368 L10.6985768,28.7136368 Z" id="Fill-1" fill="#00D2BA"></path>
                <path d="M51.5840334,29.1210138 C51.5840334,15.9220429 41.1434427,5.18381853 28.3098088,5.18381853 C15.4763999,5.18381853 5.03558425,15.9220429 5.03558425,29.1210138 L0.0303117468,29.1210138 C0.0303117468,13.0831115 12.7165464,0.0359698742 28.3098088,0.0359698742 C43.9030713,0.0359698742 56.5893059,13.0833429 56.5893059,29.1210138 L51.5840334,29.1210138 L51.5840334,29.1210138 Z" id="Fill-2" fill="#00D2BA"></path>
                <path d="M28.3120268,57.7986808 C12.7187024,57.7986808 0.0324172105,44.7510763 0.0324172105,28.7136368 L5.03770963,28.7136368 C5.03770963,41.9126079 15.4783419,52.6508322 28.3120268,52.6508322 C41.1454868,52.6508322 51.586344,41.9126079 51.586344,28.7136368 L56.5914114,28.7136368 C56.5914114,44.7510763 43.9055763,57.7986808 28.3120268,57.7986808" id="Fill-3" fill="#00AD9B"></path>
                <ellipse id="Oval-1" fill="#00716A" cx="2.53333333" cy="29.0875638" rx="2.53333333" ry="2.60549582"></ellipse>
                <path d="M56.5589942,28.3555556 C56.5589942,26.9318882 55.4368483,25.7777778 54.0526112,25.7777778 C52.6683741,25.7777778 51.5462282,26.9318882 51.5462282,28.3555556 C51.5462282,29.7792229 52.6683741,30.9333333 54.0526112,30.9333333 C55.4368483,30.9333333 56.5589942,29.7792229 56.5589942,28.3555556 Z" id="Oval-1-Copy" fill="#00716A"></path>
            </g>
        </g>
    </g>
</svg>