<?xml version="1.0" encoding="UTF-8" standalone="no"?>
<svg width="86px" height="86px" viewBox="0 0 86 86" version="1.1" xmlns="http://www.w3.org/2000/svg" xmlns:xlink="http://www.w3.org/1999/xlink">
    <!-- Generator: Sketch 3.6 (26304) - http://www.bohemiancoding.com/sketch -->
    <title>Group 33</title>
    <desc>Created with Sketch.</desc>
    <defs></defs>
    <g id="Page-1" stroke="none" stroke-width="1" fill="none" fill-rule="evenodd">
        <g id="Desktop-HD-Copy" transform="translate(-391.000000, -5824.000000)">
            <g id="Group-33" transform="translate(391.000000, 5824.000000)">
                <g id="Page-1" fill="#FFFFFF">
                    <path d="M43,86 C19.252,86 0,66.748 0,43 C0,19.252 19.252,0 43,0 C66.748,0 86,19.252 86,43 C86,66.748 66.748,86 43,86 Z" id="Fill-1"></path>
                </g>
                <path d="M48.0876163,47.530124 C46.673873,47.530124 45.5248852,46.379851 45.5248852,44.9673928 C45.5248852,43.5536495 46.673873,42.4033765 48.0876163,42.4033765 C49.5013597,42.4033765 50.6516327,43.5536495 50.6516327,44.9673928 C50.6516327,46.379851 49.5013597,47.530124 48.0876163,47.530124 M48.4847497,52.2456007 C47.2355147,53.4935505 45.267841,54.0988897 42.508471,54.0988897 C39.749101,54.0988897 37.7814273,53.4922653 36.5347627,52.2456007 C36.2571549,51.9679929 36.2571549,51.5168802 36.5347627,51.2392725 C36.8136557,50.9616647 37.2634831,50.9616647 37.5410909,51.2392725 C38.5075773,52.2057588 40.1462343,52.6761498 42.508471,52.6761498 C44.8719928,52.6761498 46.5106499,52.2057588 47.4784215,51.2392725 C47.7573145,50.9616647 48.2071419,50.9616647 48.4847497,51.2392725 C48.7636427,51.5181655 48.7623575,51.9679929 48.4847497,52.2456007 M34.3678797,44.9673928 C34.3678797,43.5536495 35.5168675,42.4046617 36.9293256,42.4046617 C38.3417837,42.4046617 39.4920567,43.5536495 39.4920567,44.9673928 C39.4920567,46.379851 38.3417837,47.5288388 36.9293256,47.5288388 C35.5168675,47.5288388 34.3678797,46.379851 34.3678797,44.9673928 M61.0182272,42.1758923 C61.0182272,39.8547828 59.1315224,37.9667928 56.8104129,37.9667928 C55.7398236,37.9667928 54.7617702,38.3703522 54.0189123,39.030956 C51.164436,37.1918044 47.4719954,36.1160742 43.5199401,35.9592772 L45.6893935,29.1000515 L51.5898442,30.4893756 C51.6014112,32.3915031 53.151388,33.936339 55.0560859,33.936339 C56.9697803,33.936339 58.524898,32.3799361 58.524898,30.4675269 C58.524898,28.5564029 56.9697803,27 55.0560859,27 C53.6320607,27 52.4072449,27.8636687 51.8738781,29.0936254 L45.3732291,27.5642121 C45.0107967,27.4781023 44.6445087,27.6863081 44.5314092,28.0423144 L42.0316539,35.9438546 C37.8791041,36.0222531 33.9823133,37.1095502 31.0006001,39.030956 C30.256457,38.369067 29.2796888,37.9667928 28.2090995,37.9667928 C25.88799,37.9667928 24,39.8547828 24,42.1758923 C24,43.7091612 24.8263973,45.0535027 26.0550688,45.7886492 C25.9933781,46.1832121 25.9599624,46.5816307 25.9599624,46.9839049 C25.9599624,49.9938931 27.7220007,52.8008162 30.9222016,54.8893008 C31.3398985,55.1617677 31.7755885,55.4175267 32.2279863,55.6552926 C32.8795935,55.9984467 33.5633312,56.3068998 34.276629,56.5793667 L35.6620975,57.0523281 C37.7839977,57.6923683 40.1076777,58.0316667 42.508471,58.0316667 C44.9105495,58.0316667 47.2342294,57.6923683 49.3574149,57.0510429 L50.7428834,56.5793667 C51.9509914,56.1179723 53.0781304,55.5537601 54.0973108,54.8893008 C57.2962265,52.8008162 59.0582648,49.9938931 59.0582648,46.9839049 C59.0582648,46.5816307 59.0261343,46.1832121 58.9644436,45.7886492 C60.1931151,45.0535027 61.0182272,43.7091612 61.0182272,42.1758923" id="Fill-1" fill="#155160"></path>
            </g>
        </g>
    </g>
</svg>